<?xml version="1.0" encoding="UTF-8"?>
<svg version="1.1" xmlns="http://www.w3.org/2000/svg" width="500" height="500">
<path d="M0 0 C0 0.66 0 1.32 0 2 C0.556875 2.2475 1.11375 2.495 1.6875 2.75 C6.41994372 5.30807769 9.89175691 8.62543565 13 13 C13 13.66 13 14.32 13 15 C13.66 15 14.32 15 15 15 C16.28423159 17.43119376 17.55210801 19.86897298 18.8125 22.3125 C19.16892578 22.98345703 19.52535156 23.65441406 19.89257812 24.34570312 C24.64793569 33.63828258 26.56942655 42.78152803 26.5 53.1875 C26.49500488 54.18418701 26.49000977 55.18087402 26.48486328 56.20776367 C26.17951206 69.29469576 22.43715816 80.18231541 15 91 C14.60425781 91.639375 14.20851563 92.27875 13.80078125 92.9375 C12.93136475 94.33373766 11.97569335 95.67584474 11 97 C10.34 97 9.68 97 9 97 C8.61328125 97.88945312 8.61328125 97.88945312 8.21875 98.796875 C6.90230105 101.17660965 5.57419218 102.50978792 3.5 104.25 C2.8915625 104.77078125 2.283125 105.2915625 1.65625 105.828125 C0 107 0 107 -2 107 C-2 107.66 -2 108.32 -2 109 C-14.8772647 116.61512663 -26.14785655 120.3187508 -41.1875 120.4375 C-42.18499268 120.44773193 -43.18248535 120.45796387 -44.21020508 120.46850586 C-61.18403066 120.26815447 -76.62984176 113.44189187 -89 102 C-89.65613281 101.42378906 -90.31226563 100.84757812 -90.98828125 100.25390625 C-101.76242075 90.29200786 -109.24463348 74.59657779 -110.12060547 59.98876953 C-110.90107382 39.95982717 -106.87901241 23.08588305 -93 8 C-67.83485742 -18.52110906 -29.38216245 -19.5881083 0 0 Z " fill="#419BF2" transform="translate(297,149)"/>
<path d="M0 0 C3.63 0 7.26 0 11 0 C11 17.16 11 34.32 11 52 C2.72727273 54.36363636 2.72727273 54.36363636 -2 52 C-2.99 52.495 -2.99 52.495 -4 53 C-8.50460625 54.50153542 -12.42881321 54.20707901 -17 53 C-23.20321098 49.60468187 -24.72901146 45.54197709 -28 39 C-36.25 38.67 -44.5 38.34 -53 38 C-48.88570537 42.94374373 -48.88570537 42.94374373 -45.9375 43.55859375 C-44.9784375 43.49865234 -44.9784375 43.49865234 -44 43.4375 C-42.9790625 43.37369141 -42.9790625 43.37369141 -41.9375 43.30859375 C-39.42779257 42.90886212 -37.26883427 42.13441713 -35 41 C-32.5 42.75 -32.5 42.75 -30 45 C-30 46.32 -30 47.64 -30 49 C-36.83988585 53.83628293 -42.67856843 55.11426577 -51 54 C-54.47386209 52.65921112 -56.91428643 51.05714238 -60 49 C-60 48.34 -60 47.68 -60 47 C-60.66 47 -61.32 47 -62 47 C-63.32 44.03 -64.64 41.06 -66 38 C-74.25 38 -82.5 38 -91 38 C-86.74672492 43.27934848 -86.74672492 43.27934848 -82.4375 43.4375 C-79.30702147 43.03907546 -77.71666839 42.4051733 -75 41 C-71.20095425 41.23744036 -69.47127319 43.26394754 -67 46 C-68.38783708 50.16351124 -70.55202434 50.99341102 -74.33203125 52.9765625 C-79.62943943 55.00865759 -84.89186526 54.94457745 -90.30078125 53.30078125 C-95.8457225 50.82592047 -99.45348079 47.21326252 -102.10546875 41.703125 C-103.99803444 35.98410553 -104.17258196 29.20069583 -102.08984375 23.515625 C-99.19802609 18.5688501 -95.46421709 15.34098726 -90.0625 13.25 C-83.4745188 12.45145682 -79.01257924 13.46838769 -73 16 C-73 16.66 -73 17.32 -73 18 C-72.37609375 18.23460937 -71.7521875 18.46921875 -71.109375 18.7109375 C-68.39744059 20.36823075 -68.11024003 21.6141599 -67.25 24.625 C-67.00765625 25.44226563 -66.7653125 26.25953125 -66.515625 27.1015625 C-66.34546875 27.72804688 -66.1753125 28.35453125 -66 29 C-65.76925781 28.48050781 -65.53851563 27.96101563 -65.30078125 27.42578125 C-62.49092015 21.41734309 -59.65073223 17.45040065 -53.6875 14.1875 C-47.94844763 12.33933059 -43.4096623 12.13929737 -37.875 14.4375 C-33.06441903 17.05194618 -30.62852387 21.34034404 -28 26 C-27.38125 25.01 -26.7625 24.02 -26.125 23 C-25.42375 22.01 -24.7225 21.02 -24 20 C-23.34 20 -22.68 20 -22 20 C-22 19.34 -22 18.68 -22 18 C-16.066698 13.78076302 -11.20981766 13.27064863 -4 14 C-3.01 14.495 -3.01 14.495 -2 15 C-2.02320313 14.25234375 -2.04640625 13.5046875 -2.0703125 12.734375 C-2.08835937 11.74953125 -2.10640625 10.7646875 -2.125 9.75 C-2.14820313 8.77546875 -2.17140625 7.8009375 -2.1953125 6.796875 C-2 4 -2 4 0 0 Z M-89.9375 24.875 C-91.1490712 26.90217203 -91.1490712 26.90217203 -91 29 C-86.38 29 -81.76 29 -77 29 C-78.76851036 25.81925835 -78.76851036 25.81925835 -81 23 C-85.950298 22.38059334 -85.950298 22.38059334 -89.9375 24.875 Z M-53 28 C-53 28.33 -53 28.66 -53 29 C-48.38 29 -43.76 29 -39 29 C-39.5739739 24.79819816 -39.5739739 24.79819816 -43 23 C-48.0185155 22.07553662 -49.8438274 24.30276924 -53 28 Z M-15 27 C-16.98559037 31.30211246 -17.23097763 33.25844024 -15.8125 37.8125 C-14.21145293 41.18338395 -14.21145293 41.18338395 -11 43 C-7.44874671 43.24285895 -7.44874671 43.24285895 -4 42 C-1.40243934 37.72659375 -0.33676858 33.97423562 -1 29 C-1.99034226 26.59616005 -1.99034226 26.59616005 -4 25 C-8.64044418 23.48681168 -11.31781363 23.72694545 -15 27 Z " fill="#E2E5E3" transform="translate(282,293)"/>
<path d="M0 0 C0.82120331 -0.00960754 1.64240662 -0.01921509 2.48849487 -0.02911377 C3.36772614 -0.03336365 4.2469574 -0.03761353 5.15283203 -0.04199219 C6.06517609 -0.04769226 6.97752014 -0.05339233 7.91751099 -0.05926514 C9.84571172 -0.06870024 11.77392848 -0.07524319 13.70214844 -0.07910156 C16.64302836 -0.08880904 19.5832097 -0.1198472 22.52392578 -0.15136719 C24.40022373 -0.15789762 26.27652666 -0.16314793 28.15283203 -0.16699219 C29.02801483 -0.17933899 29.90319763 -0.19168579 30.80490112 -0.20440674 C36.8160513 -0.18260627 41.23303678 0.69086725 45.72314453 5.03613281 C46.78564453 7.16113281 46.78564453 7.16113281 46.78564453 9.72363281 C45.39300663 13.1181877 44.14042379 13.65645308 40.78564453 15.16113281 C37.48361511 15.58368368 34.20847659 15.55453755 30.88330078 15.53222656 C28.92171048 15.549607 26.96012197 15.5671914 24.99853516 15.58496094 C21.91980693 15.59503418 18.8411952 15.59862896 15.76245117 15.59692383 C12.78155079 15.60049948 9.80154211 15.62786035 6.82080078 15.65722656 C5.44711082 15.64495277 5.44711082 15.64495277 4.04566956 15.63243103 C-2.7755298 15.71163132 -6.0743971 17.16207001 -11.04248047 21.90722656 C-13.7908597 25.17658977 -15.95266623 27.99755833 -17.21435547 32.16113281 C-16.82828125 31.72075684 -16.44220703 31.28038086 -16.04443359 30.82666016 C-6.87954174 22.48582608 6.77970784 23.38609604 18.29052734 23.50927734 C21.3083765 23.53633664 24.32258844 23.50928936 27.34033203 23.47753906 C29.27002769 23.48083909 31.1997211 23.48723687 33.12939453 23.49707031 C34.47318176 23.48188858 34.47318176 23.48188858 35.84411621 23.46640015 C40.33034307 23.55071759 42.22157433 23.72902806 45.88916016 26.53857422 C47.78564453 29.16113281 47.78564453 29.16113281 47.78564453 31.78613281 C46.4158507 35.03939317 44.92326076 36.5923247 41.78564453 38.16113281 C38.73394088 38.24574081 35.70063211 38.27386518 32.64892578 38.26660156 C30.77326327 38.28006293 28.89761145 38.29508705 27.02197266 38.31152344 C24.06367119 38.33431542 21.10657064 38.34866838 18.14819336 38.33618164 C15.29339505 38.32733585 12.44097762 38.35634007 9.58642578 38.39160156 C8.71013016 38.37937057 7.83383453 38.36713959 6.9309845 38.35453796 C1.30088875 38.46485867 -1.76079304 39.6619119 -5.93954468 43.45530701 C-8.33942831 46.66659409 -8.20769955 50.15989626 -8.15185547 54.03613281 C-8.16796875 54.81988281 -8.18408203 55.60363281 -8.20068359 56.41113281 C-8.2357388 58.3274843 -8.22929567 60.24451896 -8.21435547 62.16113281 C-12.17435547 61.83113281 -16.13435547 61.50113281 -20.21435547 61.16113281 C-20.31371692 54.77486639 -20.38605692 48.38905646 -20.43408203 42.00219727 C-20.45411627 39.8325211 -20.48135159 37.66289838 -20.51611328 35.4934082 C-20.56499247 32.36298381 -20.58740672 29.23327733 -20.60498047 26.10253906 C-20.62562561 25.14279678 -20.64627075 24.1830545 -20.6675415 23.19422913 C-20.66965357 16.76083472 -19.53131531 11.7281204 -16.21435547 6.16113281 C-14.21435547 4.22363281 -14.21435547 4.22363281 -12.21435547 3.16113281 C-11.55435547 2.78988281 -10.89435547 2.41863281 -10.21435547 2.03613281 C-6.81215571 0.54767042 -3.70000132 0.03513004 0 0 Z " fill="#F6FAF4" transform="translate(242.21435546875,170.8388671875)"/>
<path d="M0 0 C0.87213837 2.98681837 1.09851289 5.57125664 1.02172852 8.67675781 C0.99158409 10.05773651 0.99158409 10.05773651 0.96083069 11.46661377 C0.92027809 12.94493683 0.92027809 12.94493683 0.87890625 14.453125 C0.85529526 15.46848328 0.83168427 16.48384155 0.80735779 17.52996826 C0.73083963 20.77012525 0.64676403 24.0100361 0.5625 27.25 C0.50926747 29.44790466 0.45652715 31.6458213 0.40429688 33.84375 C0.27524051 39.22931867 0.13998021 44.61470479 0 50 C0.69867188 49.98839844 1.39734375 49.97679687 2.1171875 49.96484375 C3.02726563 49.95582031 3.93734375 49.94679687 4.875 49.9375 C5.77992188 49.92589844 6.68484375 49.91429687 7.6171875 49.90234375 C10 50 10 50 12 51 C11.9071875 49.85402344 11.814375 48.70804688 11.71875 47.52734375 C11.64366568 45.99750068 11.57087053 44.46754406 11.5 42.9375 C11.39945313 41.80924805 11.39945313 41.80924805 11.296875 40.65820312 C11.14625846 36.30915044 11.84732834 33.34195444 14.70703125 29.9921875 C21.8970275 24.4630756 32.59723367 26.09034946 41.1875 26.1875 C44.07828351 26.19352096 46.96869345 26.18969694 49.85945129 26.17634583 C51.65136022 26.17087938 53.4433648 26.17801831 55.2351532 26.19950867 C59.61984706 26.21417048 63.00852111 26.06476885 67 24 C67 26 67 26 65.625 27.625 C64 29 64 29 62 29 C61.505 30.485 61.505 30.485 61 32 C58.9375 33.1875 58.9375 33.1875 57 34 C58.32 34.66 59.64 35.32 61 36 C59.99622314 36.0093457 58.99244629 36.01869141 57.95825195 36.02832031 C54.2211529 36.06830231 50.48487002 36.13408256 46.74829102 36.20751953 C45.13348911 36.23568186 43.51855057 36.25692 41.90356445 36.27099609 C39.57692763 36.29249258 37.25192523 36.33917211 34.92578125 36.390625 C34.20787918 36.39185364 33.48997711 36.39308228 32.75032043 36.39434814 C29.46807284 36.48948083 27.08186971 36.95969534 24.12963867 38.41308594 C21.02925801 41.76460609 21.02925801 41.76460609 20 51 C34.19 51 48.38 51 63 51 C62.67 51.99 62.34 52.98 62 54 C61.01 54 60.02 54 59 54 C58.505 54.99 58.505 54.99 58 56 C54.49039209 57.1698693 51.73327207 57.11299482 48.03125 57.09765625 C47.01617371 57.09553383 47.01617371 57.09553383 45.98059082 57.09336853 C43.82034861 57.08777955 41.66021071 57.07524106 39.5 57.0625 C38.04557443 57.05748251 36.59114722 57.05292003 35.13671875 57.04882812 C31.42445012 57.03745803 27.71223867 57.0187691 24 57 C23.01 57 22.02 57 21 57 C18.65789079 56.36485174 16.32315031 55.7013284 14 55 C13.34 55.99 12.68 56.98 12 58 C9 57 9 57 7 56 C4.9625237 55.77141886 2.91959697 55.58975722 0.875 55.4375 C-0.22070312 55.35371094 -1.31640625 55.26992187 -2.4453125 55.18359375 C-3.70988281 55.09271484 -3.70988281 55.09271484 -5 55 C-5 53.02 -5 51.04 -5 49 C-6.485 49.495 -6.485 49.495 -8 50 C-8.78338872 45.12558131 -8.91113074 41.33365242 -8.22924805 36.41308594 C-7.6509482 30.32584876 -8.05119742 24.12815704 -8.21484375 18.0234375 C-8.35092538 7.73071818 -8.35092538 7.73071818 -5 3 C-2.3125 1.125 -2.3125 1.125 0 0 Z " fill="#0C52A2" transform="translate(222,182)"/>
<path d="M0 0 C11.22 0 22.44 0 34 0 C34 3.96 34 7.92 34 12 C26.74 12 19.48 12 12 12 C12 15.3 12 18.6 12 22 C13.28777344 21.98839844 14.57554687 21.97679687 15.90234375 21.96484375 C17.58072772 21.9554673 19.25911326 21.94636695 20.9375 21.9375 C22.21270508 21.92493164 22.21270508 21.92493164 23.51367188 21.91210938 C24.32255859 21.90888672 25.13144531 21.90566406 25.96484375 21.90234375 C26.7137085 21.89710693 27.46257324 21.89187012 28.23413086 21.88647461 C30 22 30 22 31 23 C31.0979057 24.49738124 31.12974864 25.99942892 31.125 27.5 C31.12886719 28.72203125 31.12886719 28.72203125 31.1328125 29.96875 C31 32 31 32 30 33 C28.65732587 33.08631874 27.31025678 33.10706473 25.96484375 33.09765625 C24.87224243 33.09390991 24.87224243 33.09390991 23.75756836 33.09008789 C22.8269458 33.08098389 21.89632324 33.07187988 20.9375 33.0625 C16.5134375 33.0315625 16.5134375 33.0315625 12 33 C12 39.6 12 46.2 12 53 C8.04 53 4.08 53 0 53 C0 35.51 0 18.02 0 0 Z " fill="#E5E8E3" transform="translate(147,294)"/>
<path d="M0 0 C1.96875 1.16796875 1.96875 1.16796875 2.96875 4.16796875 C1.53125 7.35546875 1.53125 7.35546875 -0.03125 10.16796875 C-1.000625 9.83796875 -1.97 9.50796875 -2.96875 9.16796875 C-7.32891837 7.89923123 -11.52679566 7.98411347 -16.03125 8.16796875 C-16.36125 8.82796875 -16.69125 9.48796875 -17.03125 10.16796875 C-15.85369141 10.42320312 -15.85369141 10.42320312 -14.65234375 10.68359375 C-0.603877 13.92422166 -0.603877 13.92422166 3.40625 18.98046875 C4.50174803 23.24073886 4.57026376 26.80664813 2.78125 30.85546875 C-0.01110365 34.41812685 -2.72231581 36.73165735 -7.03125 38.16796875 C-14.68094993 38.93293874 -20.31488309 37.84351899 -27.03125 34.16796875 C-27.69125 33.83796875 -28.35125 33.50796875 -29.03125 33.16796875 C-29.03125 29.16796875 -29.03125 29.16796875 -27.71875 27.68359375 C-26.15625 26.51171875 -24.59375 25.33984375 -23.03125 24.16796875 C-22.226875 24.64234375 -21.4225 25.11671875 -20.59375 25.60546875 C-16.36185071 27.46156493 -12.59952922 27.87356853 -8.03125 28.16796875 C-8.03125 26.84796875 -8.03125 25.52796875 -8.03125 24.16796875 C-8.76730469 23.98621094 -9.50335938 23.80445313 -10.26171875 23.6171875 C-17.76700926 21.68385639 -23.76830785 20.11498558 -28.03125 13.16796875 C-28.64300806 8.96213205 -28.31266402 6.75330992 -26.46875 2.91796875 C-19.03613342 -5.4675474 -9.32498885 -3.75589829 0 0 Z " fill="#DCDEDD" transform="translate(323.03125,308.83203125)"/>
<path d="M0 0 C1.13901512 -0.00786278 1.13901512 -0.00786278 2.30104065 -0.0158844 C3.90388773 -0.02229542 5.50678192 -0.02097947 7.10961914 -0.01245117 C9.55505651 -0.00394573 11.99815293 -0.03270359 14.44335938 -0.06445312 C16.00390555 -0.0660655 17.56445585 -0.06548691 19.125 -0.0625 C20.21584145 -0.07935097 20.21584145 -0.07935097 21.32872009 -0.09654236 C24.92323618 -0.04749069 27.02403128 0.37029962 30.12524414 2.24194336 C32.12890625 4.43359375 32.12890625 4.43359375 32.19140625 7.99609375 C31.12890625 11.43359375 31.12890625 11.43359375 29.66113281 13.11645508 C25.73898287 15.15656296 21.91126183 14.91428636 17.55078125 14.9453125 C16.62420715 14.9632637 15.69763306 14.9812149 14.74298096 14.99971008 C11.78833545 15.05382076 8.83385156 15.08771132 5.87890625 15.12109375 C3.87367542 15.15426615 1.86846593 15.18875573 -0.13671875 15.22460938 C-5.04806049 15.30954777 -9.95935423 15.37635548 -14.87109375 15.43359375 C-14.98933191 10.39664815 -15.02864332 7.49330035 -11.87109375 3.43359375 C-8.33046527 -0.09848378 -4.74440005 -0.01909881 0 0 Z " fill="#F3F9F0" transform="translate(256.87109375,217.56640625)"/>
<path d="M0 0 C0.87213837 2.98681837 1.09851289 5.57125664 1.02172852 8.67675781 C0.99158409 10.05773651 0.99158409 10.05773651 0.96083069 11.46661377 C0.92027809 12.94493683 0.92027809 12.94493683 0.87890625 14.453125 C0.85529526 15.46848328 0.83168427 16.48384155 0.80735779 17.52996826 C0.73083963 20.77012525 0.64676403 24.0100361 0.5625 27.25 C0.50926747 29.44790466 0.45652715 31.6458213 0.40429688 33.84375 C0.27524051 39.22931867 0.13998021 44.61470479 0 50 C0.69867188 49.98839844 1.39734375 49.97679687 2.1171875 49.96484375 C3.02726563 49.95582031 3.93734375 49.94679687 4.875 49.9375 C5.77992188 49.92589844 6.68484375 49.91429687 7.6171875 49.90234375 C10 50 10 50 12 51 C12.33 50.01 12.66 49.02 13 48 C13 48.99 13 49.98 13 51 C14.98 51 16.96 51 19 51 C19.33 52.32 19.66 53.64 20 55 C24.67783042 54.93059371 29.35481152 54.84237949 34.03198242 54.73754883 C35.61945078 54.70452021 37.20703035 54.67642131 38.79467773 54.65356445 C47.29393921 54.52790692 55.05621509 54.40187345 63 51 C62.67 51.99 62.34 52.98 62 54 C61.01 54 60.02 54 59 54 C58.505 54.99 58.505 54.99 58 56 C54.49039209 57.1698693 51.73327207 57.11299482 48.03125 57.09765625 C47.01617371 57.09553383 47.01617371 57.09553383 45.98059082 57.09336853 C43.82034861 57.08777955 41.66021071 57.07524106 39.5 57.0625 C38.04557443 57.05748251 36.59114722 57.05292003 35.13671875 57.04882812 C31.42445012 57.03745803 27.71223867 57.0187691 24 57 C23.01 57 22.02 57 21 57 C18.65789079 56.36485174 16.32315031 55.7013284 14 55 C13.34 55.99 12.68 56.98 12 58 C9 57 9 57 7 56 C4.9625237 55.77141886 2.91959697 55.58975722 0.875 55.4375 C-0.22070312 55.35371094 -1.31640625 55.26992187 -2.4453125 55.18359375 C-3.70988281 55.09271484 -3.70988281 55.09271484 -5 55 C-5 53.02 -5 51.04 -5 49 C-6.485 49.495 -6.485 49.495 -8 50 C-8.78338872 45.12558131 -8.91113074 41.33365242 -8.22924805 36.41308594 C-7.6509482 30.32584876 -8.05119742 24.12815704 -8.21484375 18.0234375 C-8.35092538 7.73071818 -8.35092538 7.73071818 -5 3 C-2.3125 1.125 -2.3125 1.125 0 0 Z " fill="#155FC7" transform="translate(222,182)"/>
<path d="M0 0 C0 0.66 0 1.32 0 2 C0.556875 2.2475 1.11375 2.495 1.6875 2.75 C6.41994372 5.30807769 9.89175691 8.62543565 13 13 C13 13.66 13 14.32 13 15 C13.66 15 14.32 15 15 15 C16.29935464 17.51712189 17.58954372 20.03829087 18.875 22.5625 C19.42220703 23.61920898 19.42220703 23.61920898 19.98046875 24.69726562 C23.4814228 31.60369316 25.27429256 37.59964078 25.125 45.4375 C25.10695313 46.67371094 25.08890625 47.90992188 25.0703125 49.18359375 C25.04710937 50.11300781 25.02390625 51.04242188 25 52 C24.67 52 24.34 52 24 52 C23.79503906 50.95199219 23.59007812 49.90398437 23.37890625 48.82421875 C23.10687314 47.44529231 22.83473209 46.06638717 22.5625 44.6875 C22.42779297 43.99720703 22.29308594 43.30691406 22.15429688 42.59570312 C21.57225668 39.65710993 20.94847772 36.84543315 20 34 C18.35 33.67 16.7 33.34 15 33 C15.33 31.68 15.66 30.36 16 29 C16.66 29 17.32 29 18 29 C17.360625 27.906875 16.72125 26.81375 16.0625 25.6875 C14.73398675 23.4161709 13.84186703 21.52560108 13 19 C11.35 18.67 9.7 18.34 8 18 C8.495 16.515 8.495 16.515 9 15 C8.04029596 12.69164222 8.04029596 12.69164222 6 11 C2.87413125 10.66602213 2.87413125 10.66602213 0 11 C-0.2165625 10.1028125 -0.2165625 10.1028125 -0.4375 9.1875 C-0.8872439 7.43849596 -1.42892341 5.71322977 -2 4 C-3.83574993 3.0545706 -3.83574993 3.0545706 -6 2.4375 C-8.1875 1.74609375 -8.1875 1.74609375 -10 1 C-10.495 0.01 -10.495 0.01 -11 -1 C-19.20860301 -5.7418629 -29.62732886 -9.84035618 -39 -8 C-41.875 -8.9375 -41.875 -8.9375 -44 -10 C-44.78375 -9.34 -45.5675 -8.68 -46.375 -8 C-49 -6 -49 -6 -51 -6 C-51.66 -6.66 -52.32 -7.32 -53 -8 C-53.99 -8.33 -54.98 -8.66 -56 -9 C-56.4125 -8.505 -56.825 -8.01 -57.25 -7.5 C-59 -6 -59 -6 -63 -6 C-66.85816285 -5.03909906 -70.2015925 -4.16434427 -72.5 -0.8125 C-72.665 -0.214375 -72.83 0.38375 -73 1 C-73.94875 0.95875 -74.8975 0.9175 -75.875 0.875 C-79.10244856 0.65026182 -79.10244856 0.65026182 -81 3 C-81.99 2.67 -82.98 2.34 -84 2 C-83.34 2 -82.68 2 -82 2 C-81.773125 1.4225 -81.54625 0.845 -81.3125 0.25 C-78.46368475 -4.63368329 -73.88069071 -6.70408923 -68.75 -8.625 C-67.16445312 -9.23214844 -67.16445312 -9.23214844 -65.546875 -9.8515625 C-42.45636754 -17.32800434 -19.96633838 -13.31089225 0 0 Z " fill="#83CAE8" transform="translate(297,149)"/>
<path d="M0 0 C3.05936637 3.75467691 5 7.08113061 5 12 C5.66 12 6.32 12 7 12 C7.33 13.65 7.66 15.3 8 17 C9.98 17 11.96 17 14 17 C14.33 18.65 14.66 20.3 15 22 C15.99 22.33 16.98 22.66 18 23 C18 23.66 18 24.32 18 25 C19.32 25 20.64 25 22 25 C23.20628008 27.33214148 24.1654738 29.49642139 25 32 C26.175625 32.185625 26.175625 32.185625 27.375 32.375 C30 33 30 33 32 35 C32.66 35 33.32 35 34 35 C34 35.66 34 36.32 34 37 C37.04386724 37.08226668 39.07175348 36.97608217 42 36 C42 36.99 42 37.98 42 39 C45.02031901 40.75727651 47.02720571 41.1902901 50.5 41 C54.57864259 40.77651273 54.57864259 40.77651273 56.86328125 41.98828125 C59.85436358 43.40453413 62.39824727 43.22801711 65.6875 43.1875 C66.84636719 43.18105469 68.00523437 43.17460937 69.19921875 43.16796875 C71.90461124 43.31655808 71.90461124 43.31655808 73 42 C74.39244998 41.84170042 75.78953608 41.72334922 77.1875 41.625 C82.79202979 41.05474578 87.25525999 39.36886335 91 35 C91 35.66 91 36.32 91 37 C91.86625 36.505 91.86625 36.505 92.75 36 C95 35 95 35 99 35 C99.33 33.68 99.66 32.36 100 31 C100.66 31 101.32 31 102 31 C102 30.34 102 29.68 102 29 C103.98 29 105.96 29 108 29 C108.33 27.68 108.66 26.36 109 25 C109.66 25.33 110.32 25.66 111 26 C111.185625 24.7934375 111.185625 24.7934375 111.375 23.5625 C111.684375 22.2940625 111.684375 22.2940625 112 21 C112.99 20.505 112.99 20.505 114 20 C114.65213292 17.97536745 114.65213292 17.97536745 115 16 C115.99 16 116.98 16 118 16 C118.33 14.68 118.66 13.36 119 12 C119.99 12 120.98 12 122 12 C120.54997977 16.10839064 118.6020866 19.50344613 116 23 C115.34 23 114.68 23 114 23 C113.7421875 23.59296875 113.484375 24.1859375 113.21875 24.796875 C111.90230105 27.17660965 110.57419218 28.50978792 108.5 30.25 C107.8915625 30.77078125 107.283125 31.2915625 106.65625 31.828125 C105 33 105 33 103 33 C103 33.66 103 34.32 103 35 C90.1227353 42.61512663 78.85214345 46.3187508 63.8125 46.4375 C62.81500732 46.44773193 61.81751465 46.45796387 60.78979492 46.46850586 C43.81596934 46.26815447 28.37015824 39.44189187 16 28 C15.34386719 27.42378906 14.68773437 26.84757812 14.01171875 26.25390625 C6.52633876 19.33283429 1.71789456 10.75244518 -1 1 C-0.67 0.67 -0.34 0.34 0 0 Z " fill="#1B489E" transform="translate(192,223)"/>
<path d="M0 0 C13.02186879 -0.89463221 13.02186879 -0.89463221 17.33203125 1.0546875 C20.22220696 3.65654884 21.37657097 6.20373332 21.75 10.0625 C21.45658545 13.46610876 20.89464326 14.12696838 18.5625 16.9375 C14.73478374 19.67289436 10.58922364 19.88781898 6 20 C6 22.64 6 25.28 6 28 C4.68 28.33 3.36 28.66 2 29 C-0.32891212 25.50663182 -0.23551143 24.13992135 -0.1953125 20.01953125 C-0.18886719 18.85615234 -0.18242187 17.69277344 -0.17578125 16.49414062 C-0.15902344 15.27919922 -0.14226562 14.06425781 -0.125 12.8125 C-0.11597656 11.58595703 -0.10695313 10.35941406 -0.09765625 9.09570312 C-0.07406017 6.06360705 -0.04113841 3.03190062 0 0 Z M6 5 C4.50893543 7.98212913 4.88058533 10.71609658 5 14 C6.17036305 15.39287806 6.17036305 15.39287806 9.4375 15.1875 C13.05032721 15.39564928 13.05032721 15.39564928 15 13 C15.41666667 10 15.41666667 10 15 7 C11.5647952 4.70986347 10.014669 4.82157027 6 5 Z " fill="#D3D8DD" transform="translate(356,300)"/>
<path d="M0 0 C13.9449851 -0.85962237 13.9449851 -0.85962237 17.8125 2.0625 C20.47769439 5.64147532 21.23521078 7.53099511 21 12 C19.2673402 15.02538645 17.162584 17.418708 14 19 C12.46331135 19.22467831 10.92031946 19.40796805 9.375 19.5625 C8.14910156 19.68818359 8.14910156 19.68818359 6.8984375 19.81640625 C6.27195312 19.87699219 5.64546875 19.93757813 5 20 C4.67 22.64 4.34 25.28 4 28 C3.01 28.33 2.02 28.66 1 29 C0.34 28.67 -0.32 28.34 -1 28 C-1.02891949 23.70834738 -1.04677118 19.41671964 -1.0625 15.125 C-1.07087891 13.90167969 -1.07925781 12.67835938 -1.08789062 11.41796875 C-1.09111328 10.25136719 -1.09433594 9.08476562 -1.09765625 7.8828125 C-1.10289307 6.80402832 -1.10812988 5.72524414 -1.11352539 4.61376953 C-1 2 -1 2 0 0 Z M6 5 C4.76732652 6.00836062 4.76732652 6.00836062 4.90234375 8.06640625 C4.91394531 8.89011719 4.92554688 9.71382813 4.9375 10.5625 C4.94652344 11.38878906 4.95554687 12.21507812 4.96484375 13.06640625 C4.97644531 13.70449219 4.98804688 14.34257812 5 15 C9.70353479 15.38514787 9.70353479 15.38514787 14 13.8125 C15.25768528 11.94787302 15.25768528 11.94787302 14.6875 9.3125 C14.3471875 8.1678125 14.3471875 8.1678125 14 7 C10.08936776 5.52952664 10.08936776 5.52952664 6 5 Z " fill="#EDF0F3" transform="translate(380,300)"/>
<path d="M0 0 C1.8125 0.5625 1.8125 0.5625 4 2 C6.25379644 6.41744102 7.6625099 11.01771708 9.171875 15.73046875 C10.0103077 18.02824893 11.03487998 20.09492524 12.1875 22.25 C13.79272595 25.30176036 14.43889723 27.48882217 14 31 C11.625 30.75 11.625 30.75 9 30 C8.7525 29.34 8.505 28.68 8.25 28 C7.8375 27.34 7.425 26.68 7 26 C3.89069059 25.29327794 3.89069059 25.29327794 0.375 25.25 C-0.81351562 25.19328125 -2.00203125 25.1365625 -3.2265625 25.078125 C-4.59941406 25.03945313 -4.59941406 25.03945313 -6 25 C-6.33 26.65 -6.66 28.3 -7 30 C-8.65 29.67 -10.3 29.34 -12 29 C-10.38101542 24.72686192 -8.75379169 20.45690852 -7.125 16.1875 C-6.66480469 14.97255859 -6.20460938 13.75761719 -5.73046875 12.50585938 C-5.06337891 10.76079102 -5.06337891 10.76079102 -4.3828125 8.98046875 C-3.97434082 7.90692139 -3.56586914 6.83337402 -3.14501953 5.72729492 C-2 3 -2 3 0 0 Z M0 11 C-0.99 13.97 -1.98 16.94 -3 20 C-0.36 20 2.28 20 5 20 C4.44271087 16.65626525 3.64826111 13.96687001 2 11 C1.34 11 0.68 11 0 11 Z " fill="#FAFAFA" transform="translate(340,299)"/>
<path d="M0 0 C-0.66 0 -1.32 0 -2 0 C-2 0.66 -2 1.32 -2 2 C-5 4 -5 4 -9 4 C-9 4.66 -9 5.32 -9 6 C-29.295 5.505 -29.295 5.505 -50 5 C-50 6.32 -50 7.64 -50 9 C-49.34 9.33 -48.68 9.66 -48 10 C-48.51949219 10.25394531 -49.03898438 10.50789062 -49.57421875 10.76953125 C-53.48835362 12.70127618 -57.28294465 14.70417169 -61 17 C-61.66 17.33 -62.32 17.66 -63 18 C-61.82551177 10.36582647 -55.73856174 5.50886994 -50 1 C-47.71393633 -0.14303184 -46.34108625 -0.15948745 -43.79736328 -0.22119141 C-42.92951202 -0.24436432 -42.06166077 -0.26753723 -41.16751099 -0.29141235 C-40.22793549 -0.3112619 -39.28835999 -0.33111145 -38.3203125 -0.3515625 C-36.87384842 -0.38629166 -36.87384842 -0.38629166 -35.39816284 -0.42172241 C-33.35550244 -0.46939516 -31.31278381 -0.51462513 -29.27001953 -0.55761719 C-26.14462994 -0.62457942 -23.01964073 -0.70239532 -19.89453125 -0.78125 C-17.91147313 -0.82617883 -15.92840046 -0.87047065 -13.9453125 -0.9140625 C-13.00978546 -0.93796051 -12.07425842 -0.96185852 -11.11038208 -0.98648071 C-10.2362265 -1.0033493 -9.36207092 -1.0202179 -8.46142578 -1.03759766 C-7.69468536 -1.05456696 -6.92794495 -1.07153625 -6.13796997 -1.08901978 C-3.96243799 -0.99843601 -2.08684571 -0.60338291 0 0 Z " fill="#0C5DB7" transform="translate(287,186)"/>
<path d="M0 0 C2.475 0.495 2.475 0.495 5 1 C5.66 2.98 6.32 4.96 7 7 C7.99 7 8.98 7 10 7 C9.7215625 8.423125 9.7215625 8.423125 9.4375 9.875 C8.71313368 12.89868793 8.71313368 12.89868793 10 15 C10.0396713 16.66619446 10.04384447 18.33391013 10 20 C9.01 20 8.02 20 7 20 C6 19 6 19 5.9375 16.4375 C5.958125 15.633125 5.97875 14.82875 6 14 C5.01 13.67 4.02 13.34 3 13 C2.53658707 12.49107208 2.07317413 11.98214417 1.59571838 11.45779419 C-0.52272773 9.52245368 -1.69448294 9.64116367 -4.53149414 9.67529297 C-5.90290306 9.6804744 -5.90290306 9.6804744 -7.30201721 9.6857605 C-8.28645309 9.70438141 -9.27088898 9.72300232 -10.28515625 9.7421875 C-11.29718613 9.74880402 -12.309216 9.75542053 -13.35191345 9.76223755 C-16.58908264 9.78567393 -19.82557345 9.82939934 -23.0625 9.875 C-26.30291556 9.91002115 -29.54329405 9.94080869 -32.78379822 9.96633911 C-34.80157172 9.98336216 -36.81930415 10.00654114 -38.83692932 10.03634644 C-39.74804977 10.04610504 -40.65917023 10.05586365 -41.59790039 10.06591797 C-42.80344322 10.08282181 -42.80344322 10.08282181 -44.03334045 10.10006714 C-46 10 -46 10 -48 9 C-48 7.68 -48 6.36 -48 5 C-43.12532925 4.97518766 -38.25069568 4.9570869 -33.37597656 4.94506836 C-31.71939452 4.94005527 -30.06281687 4.93324311 -28.40625 4.92456055 C-26.01821811 4.91236207 -23.63024498 4.90674133 -21.2421875 4.90234375 C-20.50757294 4.89718246 -19.77295837 4.89202118 -19.01608276 4.88670349 C-14.90221178 4.88625977 -11.03549391 5.19789701 -7 6 C-7 5.34 -7 4.68 -7 4 C-4.69 3.34 -2.38 2.68 0 2 C0 1.34 0 0.68 0 0 Z " fill="#49AEE7" transform="translate(285,186)"/>
<path d="M0 0 C0.66 0.495 1.32 0.99 2 1.5 C5.828163 3.4140815 8.79580541 3.51704812 13 3 C15.88214887 2.11785113 15.88214887 2.11785113 18 1 C20.5 2.75 20.5 2.75 23 5 C23 6.32 23 7.64 23 9 C16.16011415 13.83628293 10.32143157 15.11426577 2 14 C-1.47386209 12.65921112 -3.91428643 11.05714238 -7 9 C-7 8.34 -7 7.68 -7 7 C-7.66 7 -8.32 7 -9 7 C-9.33 5.68 -9.66 4.36 -10 3 C-7.69 3.33 -5.38 3.66 -3 4 C-2.67 3.34 -2.34 2.68 -2 2 C-1.34 2 -0.68 2 0 2 C0 1.34 0 0.68 0 0 Z " fill="#D5D9D3" transform="translate(229,333)"/>
<path d="M0 0 C3.30387931 1.80387931 3.30387931 1.80387931 4.5625 3.0625 C4.79779412 8.59191176 4.79779412 8.59191176 3.5625 11.0625 C2.2425 11.0625 0.9225 11.0625 -0.4375 11.0625 C-0.4375 12.7125 -0.4375 14.3625 -0.4375 16.0625 C-5.7175 15.7325 -10.9975 15.4025 -16.4375 15.0625 C-16.1075 12.7525 -15.7775 10.4425 -15.4375 8.0625 C-14.7775 7.7325 -14.1175 7.4025 -13.4375 7.0625 C-13.7675 6.7325 -14.0975 6.4025 -14.4375 6.0625 C-15.4275 6.5575 -15.4275 6.5575 -16.4375 7.0625 C-16.4375 6.4025 -16.4375 5.7425 -16.4375 5.0625 C-17.0975 5.0625 -17.7575 5.0625 -18.4375 5.0625 C-18.7675 6.0525 -19.0975 7.0425 -19.4375 8.0625 C-20.0975 8.0625 -20.7575 8.0625 -21.4375 8.0625 C-21.4375 8.7225 -21.4375 9.3825 -21.4375 10.0625 C-23.0875 10.3925 -24.7375 10.7225 -26.4375 11.0625 C-24.61451402 5.26209006 -21.41306764 2.14347097 -16.125 -0.75 C-9.99346495 -2.72456214 -5.71423122 -2.7958917 0 0 Z M-15.4375 13.0625 C-15.4375 13.3925 -15.4375 13.7225 -15.4375 14.0625 C-10.8175 14.0625 -6.1975 14.0625 -1.4375 14.0625 C-2.0114739 9.86069816 -2.0114739 9.86069816 -5.4375 8.0625 C-10.4560155 7.13803662 -12.2813274 9.36526924 -15.4375 13.0625 Z " fill="#EAECEA" transform="translate(244.4375,307.9375)"/>
<path d="M0 0 C1.46184058 0.22860058 2.91955419 0.48370392 4.375 0.75 C5.18710937 0.88921875 5.99921875 1.0284375 6.8359375 1.171875 C9 2 9 2 10.26953125 3.86328125 C11.69274577 8.026374 11.58502622 11.67599328 9.8125 15.6875 C7.69970413 18.38313611 5.93175528 20.20096835 3 22 C-0.8125 22.25 -0.8125 22.25 -4 22 C-4 21.01 -4 20.02 -4 19 C-7.11785113 19.64644661 -7.11785113 19.64644661 -8 22 C-9.65 21.67 -11.3 21.34 -13 21 C-13 20.34 -13 19.68 -13 19 C-12.34 19 -11.68 19 -11 19 C-11 18.34 -11 17.68 -11 17 C-10.34 17.33 -9.68 17.66 -9 18 C-8.67 17.67 -8.34 17.34 -8 17 C-7.34 16.34 -6.68 15.68 -6 15 C-2.875 15.375 -2.875 15.375 0 16 C0 12.92749804 -0.46056995 10.02080827 -1 7 C-1.66 6.34 -2.32 5.68 -3 5 C-2.01 3.35 -1.02 1.7 0 0 Z " fill="#F6F7F2" transform="translate(316,324)"/>
<path d="M0 0 C0.96421875 -0.01611328 1.9284375 -0.03222656 2.921875 -0.04882812 C9.90397158 -0.05350781 15.990173 1.16927735 22.625 3.3125 C20.57266315 5.5602975 19.61832739 6.3147242 16.625 7.3125 C14.79296875 6.71875 14.79296875 6.71875 12.8125 5.8125 C8.97738581 4.24614384 6.70570493 4.49635901 2.625 5.3125 C-0.25 4.375 -0.25 4.375 -2.375 3.3125 C-3.15875 3.9725 -3.9425 4.6325 -4.75 5.3125 C-7.375 7.3125 -7.375 7.3125 -9.375 7.3125 C-10.035 6.6525 -10.695 5.9925 -11.375 5.3125 C-12.365 4.9825 -13.355 4.6525 -14.375 4.3125 C-14.7875 4.8075 -15.2 5.3025 -15.625 5.8125 C-17.375 7.3125 -17.375 7.3125 -21.375 7.3125 C-25.23316285 8.27340094 -28.5765925 9.14815573 -30.875 12.5 C-31.04 13.098125 -31.205 13.69625 -31.375 14.3125 C-32.32375 14.27125 -33.2725 14.23 -34.25 14.1875 C-37.47744856 13.96276182 -37.47744856 13.96276182 -39.375 16.3125 C-40.365 15.9825 -41.355 15.6525 -42.375 15.3125 C-41.715 15.3125 -41.055 15.3125 -40.375 15.3125 C-40.148125 14.735 -39.92125 14.1575 -39.6875 13.5625 C-36.83868475 8.67881671 -32.25569071 6.60841077 -27.125 4.6875 C-25.53945312 4.08035156 -25.53945312 4.08035156 -23.921875 3.4609375 C-15.85825591 0.85003 -8.47335195 -0.02809467 0 0 Z " fill="#89C5E1" transform="translate(255.375,135.6875)"/>
<path d="M0 0 C1.0209375 0.7425 1.0209375 0.7425 2.0625 1.5 C5.66832699 3.34127336 7.99482745 3.3641066 12 3 C13.34090759 2.34870203 14.67592331 1.68486725 16 1 C19.79904575 1.23744036 21.52872681 3.26394754 24 6 C22.61216292 10.16351124 20.44797566 10.99341102 16.66796875 12.9765625 C11.32684381 15.02542741 5.96224222 15.01901132 0.55859375 13.16015625 C-4.65592028 10.68815944 -4.65592028 10.68815944 -6 8 C-4.35 8 -2.7 8 -1 8 C-0.34 6.68 0.32 5.36 1 4 C0.34 3.67 -0.32 3.34 -1 3 C-0.67 2.01 -0.34 1.02 0 0 Z " fill="#C1C3C1" transform="translate(191,333)"/>
<path d="M0 0 C1.44010481 0.25662245 2.8770687 0.53090821 4.3125 0.8125 C5.11300781 0.96332031 5.91351563 1.11414063 6.73828125 1.26953125 C9.23445587 2.07572236 10.32422106 3.02052002 12 5 C9.69 4.67 7.38 4.34 5 4 C5 4.66 5 5.32 5 6 C4.34 6 3.68 6 3 6 C3.33 6.515625 3.66 7.03125 4 7.5625 C5.32010877 10.78026512 5.13242105 13.5570528 5 17 C5.66 17.33 6.32 17.66 7 18 C6.34 18.66 5.68 19.32 5 20 C1.875 19.625 1.875 19.625 -1 19 C-1.66 19.99 -2.32 20.98 -3 22 C-3.66 21.67 -4.32 21.34 -5 21 C-5.33 21.33 -5.66 21.66 -6 22 C-6.66 22 -7.32 22 -8 22 C-8 22.66 -8 23.32 -8 24 C-6.35 24.33 -4.7 24.66 -3 25 C-2.34 23.68 -1.68 22.36 -1 21 C-0.01 21.33 0.98 21.66 2 22 C1.67 22.99 1.34 23.98 1 25 C2.32 25.33 3.64 25.66 5 26 C-2.72055838 26.51951421 -8.19700344 25.72295856 -15 22 C-15.66 21.67 -16.32 21.34 -17 21 C-17 17 -17 17 -15.6875 15.515625 C-14.125 14.34375 -12.5625 13.171875 -11 12 C-10.195625 12.474375 -9.39125 12.94875 -8.5625 13.4375 C-4.33060071 15.29359618 -0.56827922 15.70559978 4 16 C4 14.68 4 13.36 4 12 C0.37 11.01 -3.26 10.02 -7 9 C-5.68 8.67 -4.36 8.34 -3 8 C-1.33823027 5.46361462 -0.70400053 2.92007175 0 0 Z M7 16 C9 17 9 17 9 17 Z " fill="#F1F4F2" transform="translate(311,321)"/>
<path d="M0 0 C0.33 0.99 0.66 1.98 1 3 C4.465 2.505 4.465 2.505 8 2 C7.690625 2.680625 7.38125 3.36125 7.0625 4.0625 C5.67277327 7.5928516 5.67277327 7.5928516 5 14 C18.53 14 32.06 14 46 14 C45 16 45 16 42.43896484 17.11279297 C38.55533113 18.11471863 34.9533803 18.25290845 30.9765625 18.1953125 C30.23038666 18.1924826 29.48421082 18.18965271 28.71542358 18.18673706 C26.35178012 18.17561687 23.98852732 18.15052821 21.625 18.125 C20.01432842 18.11495962 18.40365085 18.10583562 16.79296875 18.09765625 C12.86183056 18.0757044 8.93098133 18.04123185 5 18 C4.67 17.01 4.34 16.02 4 15 C1.03 14.505 1.03 14.505 -2 14 C-3.10844919 10.67465243 -2.84454356 8.37817425 -2 5 C-1.34 5 -0.68 5 0 5 C0 3.35 0 1.7 0 0 Z " fill="#1648A5" transform="translate(237,219)"/>
<path d="M0 0 C0.66 0.33 1.32 0.66 2 1 C1.67 1.61875 1.34 2.2375 1 2.875 C-0.14193235 4.91018344 -0.14193235 4.91018344 0 7 C-0.66 7 -1.32 7 -2 7 C-2.33 7.66 -2.66 8.32 -3 9 C-4.32 9 -5.64 9 -7 9 C-7 9.66 -7 10.32 -7 11 C-7.66 11 -8.32 11 -9 11 C-9.2475 12.0725 -9.495 13.145 -9.75 14.25 C-11.00155428 18.00466284 -11.92836198 19.6002828 -15 22 C-15.66 22 -16.32 22 -17 22 C-17.1546875 22.86625 -17.1546875 22.86625 -17.3125 23.75 C-18.10085738 26.3300787 -19.39089207 27.85452276 -21 30 C-21.70514846 32.14733927 -21.70514846 32.14733927 -22 34 C-22.66 34 -23.32 34 -24 34 C-25.0712615 49.34412872 -25.0712615 49.34412872 -24.2578125 64.66015625 C-23.80566656 68.76372316 -23.91951692 72.87747783 -24 77 C-30.72957119 66.90564321 -29.01113767 50.02616083 -26.875 38.625 C-22.76722688 22.079272 -12.53491564 10.82979844 0 0 Z " fill="#5095D6" transform="translate(215,147)"/>
<path d="M0 0 C0.12375 0.8971875 0.12375 0.8971875 0.25 1.8125 C0.82615238 4.17537932 0.82615238 4.17537932 3.0625 5.5 C3.701875 5.995 4.34125 6.49 5 7 C5 8.32 5 9.64 5 11 C7.64 11.66 10.28 12.32 13 13 C13 13.33 13 13.66 13 14 C11.56465159 14.2226746 10.12654475 14.42761906 8.6875 14.625 C7.88699219 14.74101562 7.08648437 14.85703125 6.26171875 14.9765625 C4 15 4 15 1 13 C0.319375 13.309375 -0.36125 13.61875 -1.0625 13.9375 C-5.50282211 15.54357396 -9.4677002 15.24567867 -14 14 C-16.67452939 12.28811151 -18.8494444 10.32858172 -21 8 C-20.67 7.34 -20.34 6.68 -20 6 C-18.02 6.495 -18.02 6.495 -16 7 C-16 7.66 -16 8.32 -16 9 C-15.38125 8.34 -14.7625 7.68 -14.125 7 C-12 5 -12 5 -10 5 C-10 4.34 -10 3.68 -10 3 C-8.3603125 3.0928125 -8.3603125 3.0928125 -6.6875 3.1875 C-3.07873917 3.35597914 -3.07873917 3.35597914 -1.0625 1.5 C-0.5365625 0.7575 -0.5365625 0.7575 0 0 Z " fill="#DEE2DE" transform="translate(279,332)"/>
<path d="M0 0 C0.33 0.99 0.66 1.98 1 3 C2.98 3 4.96 3 7 3 C7.33 4.32 7.66 5.64 8 7 C12.67783042 6.93059371 17.35481152 6.84237949 22.03198242 6.73754883 C23.61945078 6.70452021 25.20703035 6.67642131 26.79467773 6.65356445 C35.29393921 6.52790692 43.05621509 6.40187345 51 3 C50.67 3.99 50.34 4.98 50 6 C49.01 6 48.02 6 47 6 C46.67 6.66 46.34 7.32 46 8 C42.49039209 9.1698693 39.73327207 9.11299482 36.03125 9.09765625 C35.01617371 9.09553383 35.01617371 9.09553383 33.98059082 9.09336853 C31.82034861 9.08777955 29.66021071 9.07524106 27.5 9.0625 C26.04557443 9.05748251 24.59114722 9.05292003 23.13671875 9.04882812 C19.42445012 9.03745803 15.71223867 9.0187691 12 9 C11.01 9 10.02 9 9 9 C6.65789079 8.36485174 4.32315031 7.7013284 2 7 C1.01 8.485 1.01 8.485 0 10 C-3 9 -3 9 -5 8 C-7.0374763 7.77141886 -9.08040303 7.58975722 -11.125 7.4375 C-12.76855469 7.31181641 -12.76855469 7.31181641 -14.4453125 7.18359375 C-15.28835937 7.12300781 -16.13140625 7.06242188 -17 7 C-16.67 5.68 -16.34 4.36 -16 3 C-13.36 3.33 -10.72 3.66 -8 4 C-8 3.34 -8 2.68 -8 2 C-2.25 1.875 -2.25 1.875 0 3 C0 2.01 0 1.02 0 0 Z " fill="#2571E0" transform="translate(234,230)"/>
<path d="M0 0 C0.67546875 0.30035156 1.3509375 0.60070312 2.046875 0.91015625 C2.93890625 1.29042969 3.8309375 1.67070312 4.75 2.0625 C5.63171875 2.44535156 6.5134375 2.82820312 7.421875 3.22265625 C10.15256309 4.04600008 11.36901347 3.9773992 14 3 C14.268125 3.763125 14.53625 4.52625 14.8125 5.3125 C15.78913749 8.00498475 15.78913749 8.00498475 17.625 9.5 C19 11 19 11 19.125 13.5625 C19.08375 14.366875 19.0425 15.17125 19 16 C19.495 16.99 19.495 16.99 20 18 C17 20 17 20 14.3125 19.625 C13.549375 19.41875 12.78625 19.2125 12 19 C12.515625 18.62875 13.03125 18.2575 13.5625 17.875 C15.31248359 15.99679734 15.31248359 15.99679734 14.9375 13 C13.86967154 9.58294892 13.07316516 8.717357 10 7 C7.29876788 6.09958929 5.69219139 5.86526435 2.91503906 5.83886719 C1.68796234 5.82445587 1.68796234 5.82445587 0.43609619 5.80975342 C-0.4451593 5.80550354 -1.32641479 5.80125366 -2.234375 5.796875 C-3.14576233 5.79117493 -4.05714966 5.78547485 -4.99615479 5.77960205 C-6.92613567 5.77015491 -8.85613266 5.7636192 -10.78613281 5.75976562 C-13.72489972 5.7500827 -16.66296039 5.71906605 -19.6015625 5.6875 C-21.47916253 5.68096734 -23.35676754 5.6757179 -25.234375 5.671875 C-26.54411285 5.6533548 -26.54411285 5.6533548 -27.88031006 5.63446045 C-33.37355048 5.65430703 -37.09962951 6.49711414 -42 9 C-42.804375 9.391875 -43.60875 9.78375 -44.4375 10.1875 C-44.953125 10.455625 -45.46875 10.72375 -46 11 C-46 10.01 -46 9.02 -46 8 C-45.01 8 -44.02 8 -43 8 C-43 7.34 -43 6.68 -43 6 C-39.535 5.505 -39.535 5.505 -36 5 C-36.33 4.01 -36.66 3.02 -37 2 C-35.95021973 2.04600342 -34.90043945 2.09200684 -33.81884766 2.1394043 C-29.93183642 2.30570696 -26.04428641 2.45193502 -22.15625 2.59204102 C-20.4721144 2.65555346 -18.78817621 2.72454266 -17.10449219 2.79907227 C-14.68715624 2.90513324 -12.26979922 2.99161189 -9.8515625 3.07421875 C-9.0963028 3.11157639 -8.34104309 3.14893402 -7.56289673 3.18742371 C-5.21841193 3.29091825 -5.21841193 3.29091825 -2 3 C-1.34 2.01 -0.68 1.02 0 0 Z " fill="#53AFE5" transform="translate(273,166)"/>
<path d="M0 0 C1.32 0 2.64 0 4 0 C2.54997977 4.10839064 0.6020866 7.50344613 -2 11 C-2.66 11 -3.32 11 -4 11 C-4.2578125 11.59296875 -4.515625 12.1859375 -4.78125 12.796875 C-6.09769895 15.17660965 -7.42580782 16.50978792 -9.5 18.25 C-10.1084375 18.77078125 -10.716875 19.2915625 -11.34375 19.828125 C-13 21 -13 21 -15 21 C-15 21.66 -15 22.32 -15 23 C-24.82165901 28.69937288 -34.29886499 33.78007567 -46 33 C-45.67 32.01 -45.34 31.02 -45 30 C-44.41992188 29.96261719 -43.83984375 29.92523438 -43.2421875 29.88671875 C-36.78605887 29.34338119 -31.40654095 28.14096444 -27 23 C-27 23.66 -27 24.32 -27 25 C-26.4225 24.67 -25.845 24.34 -25.25 24 C-23 23 -23 23 -19 23 C-18.67 21.68 -18.34 20.36 -18 19 C-17.34 19 -16.68 19 -16 19 C-16 18.34 -16 17.68 -16 17 C-14.02 17 -12.04 17 -10 17 C-9.67 15.68 -9.34 14.36 -9 13 C-8.34 13.33 -7.68 13.66 -7 14 C-6.814375 12.7934375 -6.814375 12.7934375 -6.625 11.5625 C-6.41875 10.716875 -6.2125 9.87125 -6 9 C-5.34 8.67 -4.68 8.34 -4 8 C-3.34786708 5.97536745 -3.34786708 5.97536745 -3 4 C-2.01 4 -1.02 4 0 4 C0 2.68 0 1.36 0 0 Z " fill="#3070C8" transform="translate(310,235)"/>
<path d="M0 0 C0.33 0 0.66 0 1 0 C1 15.51 1 31.02 1 47 C2.32 47 3.64 47 5 47 C5 47.66 5 48.32 5 49 C2.69 49 0.38 49 -2 49 C-3.28834054 46.42331893 -3.12948326 44.56328456 -3.1328125 41.6796875 C-3.13490723 40.59389404 -3.13700195 39.50810059 -3.13916016 38.3894043 C-3.1344873 37.22965088 -3.12981445 36.06989746 -3.125 34.875 C-3.12161621 33.70042236 -3.11823242 32.52584473 -3.11474609 31.31567383 C-2.96772668 6.43007448 -2.96772668 6.43007448 0 0 Z " fill="#194A95" transform="translate(221,185)"/>
<path d="M0 0 C0.82120331 -0.00960754 1.64240662 -0.01921509 2.48849487 -0.02911377 C3.36772614 -0.03336365 4.2469574 -0.03761353 5.15283203 -0.04199219 C6.06517609 -0.04769226 6.97752014 -0.05339233 7.91751099 -0.05926514 C9.84571172 -0.06870024 11.77392848 -0.07524319 13.70214844 -0.07910156 C16.64302836 -0.08880904 19.5832097 -0.1198472 22.52392578 -0.15136719 C24.40022373 -0.15789762 26.27652666 -0.16314793 28.15283203 -0.16699219 C29.02801483 -0.17933899 29.90319763 -0.19168579 30.80490112 -0.20440674 C36.8160513 -0.18260627 41.23303678 0.69086725 45.72314453 5.03613281 C47.10188318 7.7936101 46.66872826 9.2710406 45.78564453 12.16113281 C45.45564453 12.16113281 45.12564453 12.16113281 44.78564453 12.16113281 C44.78564453 10.18113281 44.78564453 8.20113281 44.78564453 6.16113281 C43.46564453 5.83113281 42.14564453 5.50113281 40.78564453 5.16113281 C40.78564453 4.50113281 40.78564453 3.84113281 40.78564453 3.16113281 C34.52365974 3.03379331 28.26201185 2.946557 21.99902344 2.88647461 C19.87096682 2.86141392 17.74299556 2.8273559 15.61523438 2.78393555 C12.5468229 2.72291192 9.47955458 2.69483807 6.41064453 2.67285156 C5.46761475 2.64704514 4.52458496 2.62123871 3.55297852 2.59465027 C-2.32591002 2.59218429 -5.88323501 3.57543293 -10.64257812 7.08454895 C-12.21435547 8.16113281 -12.21435547 8.16113281 -14.21435547 8.16113281 C-14.29685547 8.94488281 -14.37935547 9.72863281 -14.46435547 10.53613281 C-15.21435547 13.16113281 -15.21435547 13.16113281 -17.27685547 14.47363281 C-18.23591797 14.81394531 -18.23591797 14.81394531 -19.21435547 15.16113281 C-18.51151595 10.94409569 -17.85413846 7.47792824 -14.40966797 4.71191406 C-13.72646484 4.30328125 -13.04326172 3.89464844 -12.33935547 3.47363281 C-11.66130859 3.05726563 -10.98326172 2.64089844 -10.28466797 2.21191406 C-6.89481096 0.49140173 -3.77469909 0.03583926 0 0 Z " fill="#C7F1FD" transform="translate(242.21435546875,170.8388671875)"/>
<path d="M0 0 C13.9449851 -0.85962237 13.9449851 -0.85962237 17.8125 2.0625 C20.47769439 5.64147532 21.23521078 7.53099511 21 12 C19.56270648 14.39199214 17.9991374 16.0008626 16 18 C15.34 17.67 14.68 17.34 14 17 C14 16.34 14 15.68 14 15 C13.34 14.67 12.68 14.34 12 14 C12.66 13.34 13.32 12.68 14 12 C13.67958603 9.39719432 13.67958603 9.39719432 13 7 C10.69 6.67 8.38 6.34 6 6 C5.67 8.97 5.34 11.94 5 15 C4.34 15 3.68 15 3 15 C3 11.37 3 7.74 3 4 C3.66 3.67 4.32 3.34 5 3 C3.35 2.67 1.7 2.34 0 2 C0 1.34 0 0.68 0 0 Z " fill="#D4D9DD" transform="translate(380,300)"/>
<path d="M0 0 C1.8125 0.5625 1.8125 0.5625 4 2 C6.51499462 6.83652811 7.7913685 11.70061574 9 17 C8.01 16.67 7.02 16.34 6 16 C6.33 17.65 6.66 19.3 7 21 C3.37 21 -0.26 21 -4 21 C-4.33 20.01 -4.66 19.02 -5 18 C-5.33 18.66 -5.66 19.32 -6 20 C-6.66 20 -7.32 20 -8 20 C-2.38297872 2.38297872 -2.38297872 2.38297872 0 0 Z M0 11 C-0.99 13.97 -1.98 16.94 -3 20 C-0.36 20 2.28 20 5 20 C4.44271087 16.65626525 3.64826111 13.96687001 2 11 C1.34 11 0.68 11 0 11 Z " fill="#A7ADB2" transform="translate(340,299)"/>
<path d="M0 0 C0.99 0 1.98 0 3 0 C3 1.32 3 2.64 3 4 C1.35801636 4.03758423 1.35801636 4.03758423 -0.31713867 4.07592773 C-4.38935483 4.17030008 -8.46141226 4.27044731 -12.53344727 4.37231445 C-14.29382608 4.41555069 -16.05424378 4.4572335 -17.81469727 4.49731445 C-20.34924013 4.55529185 -22.88358934 4.61890627 -25.41796875 4.68359375 C-26.59325386 4.70866249 -26.59325386 4.70866249 -27.7922821 4.73423767 C-30.902258 4.81801668 -33.85619205 4.97123841 -36.91137695 5.58227539 C-39 6 -39 6 -41 5 C-41 3.68 -41 2.36 -41 1 C-36.12532925 0.97518766 -31.25069568 0.9570869 -26.37597656 0.94506836 C-24.71939452 0.94005527 -23.06281687 0.93324311 -21.40625 0.92456055 C-19.01821811 0.91236207 -16.63024498 0.90674133 -14.2421875 0.90234375 C-13.50757294 0.89718246 -12.77295837 0.89202118 -12.01608276 0.88670349 C-7.90221178 0.88625977 -4.03549391 1.19789701 0 2 C0 1.34 0 0.68 0 0 Z " fill="#188BD7" transform="translate(278,190)"/>
<path d="M0 0 C2.62506802 -0.02690844 5.24986173 -0.04679404 7.875 -0.0625 C8.62136719 -0.07087891 9.36773437 -0.07925781 10.13671875 -0.08789062 C15.7734375 -0.11328125 15.7734375 -0.11328125 18 1 C18.86159454 4.23097953 19.30597523 6.22486274 18.0625 9.375 C17.5365625 10.179375 17.5365625 10.179375 17 11 C12.125 9.125 12.125 9.125 11 8 C8.97174509 7.80683287 6.94276079 7.61674212 4.91015625 7.4765625 C3 7 3 7 1 4 C0.375 1.8125 0.375 1.8125 0 0 Z " fill="#F8FAF6" transform="translate(191,308)"/>
<path d="M0 0 C0.33 0 0.66 0 1 0 C1.33 3.3 1.66 6.6 2 10 C2.66 10 3.32 10 4 10 C4 9.34 4 8.68 4 8 C4.99 8.33 5.98 8.66 7 9 C5.02 11.97 5.02 11.97 3 15 C3.33 15.33 3.66 15.66 4 16 C4.66 15.67 5.32 15.34 6 15 C5.52269162 16.4589426 5.04308958 17.91713496 4.5625 19.375 C4.29566406 20.18710938 4.02882812 20.99921875 3.75390625 21.8359375 C3 24 3 24 2 26 C1.94116975 29.17315686 1.97903817 32.32966708 2.0390625 35.50195312 C2.07580376 38.62802222 1.9973129 41.0080613 1 44 C4.3 44 7.6 44 11 44 C11 39.71 11 35.42 11 31 C11.33 31 11.66 31 12 31 C12 36.28 12 41.56 12 47 C8.04 46.67 4.08 46.34 0 46 C0 30.82 0 15.64 0 0 Z " fill="#E7F3F6" transform="translate(222,186)"/>
<path d="M0 0 C0.76075836 -0.0066568 1.52151672 -0.0133136 2.30532837 -0.02017212 C3.91413965 -0.03029173 5.52299286 -0.03498935 7.13183594 -0.03466797 C9.58599557 -0.0390348 12.03834683 -0.07534034 14.4921875 -0.11328125 C16.05728553 -0.11915099 17.62239209 -0.12311933 19.1875 -0.125 C19.91786469 -0.13937103 20.64822937 -0.15374207 21.40072632 -0.16854858 C25.007363 -0.13641643 27.10865316 0.26482277 30.22119141 2.14208984 C32.2265625 4.3359375 32.2265625 4.3359375 32.3515625 7.8984375 C31.2265625 11.3359375 31.2265625 11.3359375 28.6640625 13.2734375 C27.8596875 13.6240625 27.0553125 13.9746875 26.2265625 14.3359375 C26.2265625 13.6759375 26.2265625 13.0159375 26.2265625 12.3359375 C26.8865625 12.3359375 27.5465625 12.3359375 28.2265625 12.3359375 C28.8865625 9.6959375 29.5465625 7.0559375 30.2265625 4.3359375 C26.0422899 3.325612 22.10635548 3.206849 17.80859375 3.203125 C17.1101384 3.20216827 16.41168304 3.20121155 15.69206238 3.20022583 C14.22382517 3.19954827 12.75558489 3.20137284 11.28735352 3.20556641 C9.0359023 3.21094505 6.78464838 3.2055947 4.53320312 3.19921875 C3.10416623 3.19987913 1.67512945 3.20115947 0.24609375 3.203125 C-1.05223389 3.20425293 -2.35056152 3.20538086 -3.68823242 3.20654297 C-6.68546862 3.12139424 -6.68546862 3.12139424 -8.7734375 4.3359375 C-9.4334375 3.6759375 -10.0934375 3.0159375 -10.7734375 2.3359375 C-7.09483976 -0.116461 -4.25951837 0.01290852 0 0 Z " fill="#D0EAF7" transform="translate(256.7734375,217.6640625)"/>
<path d="M0 0 C13.02186879 -0.89463221 13.02186879 -0.89463221 17.33203125 1.0546875 C19.75817995 3.23881164 20.83430811 4.93728651 21.33984375 8.1796875 C21.375 10.375 21.375 10.375 21 14 C20.01 14.495 20.01 14.495 19 15 C19 12.36 19 9.72 19 7 C17.79371992 9.33214148 16.8345262 11.49642139 16 14 C15.34 13.67 14.68 13.34 14 13 C14 11.02 14 9.04 14 7 C11.36 6.34 8.72 5.68 6 5 C5.67 7.97 5.34 10.94 5 14 C4.67 14 4.34 14 4 14 C4 10.7 4 7.4 4 4 C7.3 3.67 10.6 3.34 14 3 C10.07854902 1.03927451 5.36631 1.39693727 1 1 C1.33 9.91 1.66 18.82 2 28 C0 26 0 26 -0.22705078 23.38623047 C-0.21657715 22.30744629 -0.20610352 21.22866211 -0.1953125 20.1171875 C-0.18886719 18.95058594 -0.18242187 17.78398437 -0.17578125 16.58203125 C-0.15902344 15.35871094 -0.14226562 14.13539063 -0.125 12.875 C-0.11597656 11.64394531 -0.10695313 10.41289062 -0.09765625 9.14453125 C-0.07402548 6.09616185 -0.04108054 3.04817618 0 0 Z " fill="#8E949E" transform="translate(356,300)"/>
<path d="M0 0 C1.35117416 0.0001133 1.35117416 0.0001133 2.72964478 0.00022888 C3.70364227 0.00539017 4.67763977 0.01055145 5.68115234 0.01586914 C6.67714447 0.01728409 7.6731366 0.01869904 8.6993103 0.02015686 C11.88860037 0.02576603 15.0778209 0.03832009 18.26708984 0.05102539 C20.425943 0.05603921 22.58479725 0.06060232 24.74365234 0.06469727 C30.04315534 0.07573844 35.34261763 0.09248552 40.64208984 0.11352539 C37.05088582 2.50766141 34.38176647 2.44250215 30.22802734 2.49243164 C29.49895172 2.50942612 28.7698761 2.52642059 28.01870728 2.54393005 C25.68492332 2.59701661 23.35115203 2.63726079 21.01708984 2.67602539 C4.45834675 1.90087736 4.45834675 1.90087736 -10.42041016 7.17602539 C-11.17451172 7.72387695 -11.92861328 8.27172852 -12.70556641 8.83618164 C-13.25083984 9.25770508 -13.79611328 9.67922852 -14.35791016 10.11352539 C-11.65343651 4.01545742 -6.77908138 -0.01893598 0 0 Z " fill="#103164" transform="translate(243.35791015625,185.886474609375)"/>
<path d="M0 0 C7.75 1.625 7.75 1.625 10 5 C10.66 5.33 11.32 5.66 12 6 C11.0409375 6.86625 11.0409375 6.86625 10.0625 7.75 C7.85055905 9.74608474 7.85055905 9.74608474 7.6875 12 C6.49397255 15.47207986 3.15802969 16.39227579 0 18 C0 17.34 0 16.68 0 16 C-20.295 15.505 -20.295 15.505 -41 15 C-41 14.67 -41 14.34 -41 14 C-39.77893555 13.9906543 -38.55787109 13.98130859 -37.29980469 13.97167969 C-32.76704501 13.93179077 -28.23496485 13.86603507 -23.70263672 13.79248047 C-21.74146253 13.76426447 -19.78017449 13.74305306 -17.81884766 13.72900391 C-14.99843023 13.70758301 -12.17938257 13.66093791 -9.359375 13.609375 C-8.48319519 13.60814636 -7.60701538 13.60691772 -6.70428467 13.60565186 C-1.72477444 13.50417855 -1.72477444 13.50417855 2.55371094 11.11816406 C4.15577381 9.06825288 4.15577381 9.06825288 4.5 6.5 C3.85643482 3.28217411 2.46694247 2.08148271 0 0 Z " fill="#649DD7" transform="translate(284,218)"/>
<path d="M0 0 C0.86140091 0.0028299 1.72280182 0.00565979 2.61030579 0.00857544 C5.36143894 0.01977013 8.1122465 0.04487329 10.86328125 0.0703125 C12.72851092 0.08034323 14.5937457 0.08946891 16.45898438 0.09765625 C21.03137545 0.11970712 25.60352314 0.15423201 30.17578125 0.1953125 C30.17578125 0.5253125 30.17578125 0.8553125 30.17578125 1.1953125 C20.05496756 3.06014937 10.06922921 3.54833782 -0.20288086 3.76538086 C-1.76534546 3.80804077 -1.76534546 3.80804077 -3.359375 3.8515625 C-4.29144775 3.87025391 -5.22352051 3.88894531 -6.18383789 3.90820312 C-9.0291947 4.21760115 -11.22752398 5.01812071 -13.82421875 6.1953125 C-10.95070997 -0.43586161 -6.52519865 -0.08041708 0 0 Z " fill="#09245C" transform="translate(249.82421875,209.8046875)"/>
<path d="M0 0 C14.19 0 28.38 0 43 0 C37.03621307 4.77102954 34.96131036 5.14449092 27.7109375 5.09765625 C26.48330185 5.09553383 26.48330185 5.09553383 25.23086548 5.09336853 C22.61220675 5.0877629 19.99363296 5.07520948 17.375 5.0625 C15.60156373 5.05748572 13.82812613 5.05292269 12.0546875 5.04882812 C7.70309218 5.03779164 3.3515605 5.02052325 -1 5 C-1 4.67 -1 4.34 -1 4 C0.08885498 3.96241577 0.08885498 3.96241577 1.19970703 3.92407227 C4.50829446 3.80758759 7.81663376 3.68509986 11.125 3.5625 C12.26710937 3.52318359 13.40921875 3.48386719 14.5859375 3.44335938 C16.24882812 3.38051758 16.24882812 3.38051758 17.9453125 3.31640625 C18.96125488 3.27974854 19.97719727 3.24309082 21.02392578 3.20532227 C24.03564643 2.99754072 27.02219544 2.49630076 30 2 C15.15 1.505 15.15 1.505 0 1 C0 0.67 0 0.34 0 0 Z " fill="#2D528D" transform="translate(242,209)"/>
<path d="M0 0 C2.2396696 1.7527849 2.95804228 2.83979778 3.6875 5.625 C4.07208625 9.77853152 4.06319841 13.82890486 4 18 C0.37 18 -3.26 18 -7 18 C-6.67 16.35 -6.34 14.7 -6 13 C-5.34 13 -4.68 13 -4 13 C-2.97825654 10.95651308 -2.53996614 9.21986079 -2 7 C-1.33847444 4.6652039 -0.67258667 2.33163378 0 0 Z " fill="#EBF2EE" transform="translate(249,312)"/>
<path d="M0 0 C5.55028209 4.85447413 8.68165544 13.92887918 10 21 C10.14954609 25.67202599 10.11664835 30.32758558 10 35 C9.67 35 9.34 35 9 35 C8.79503906 33.95199219 8.59007812 32.90398437 8.37890625 31.82421875 C8.10687314 30.44529231 7.83473209 29.06638717 7.5625 27.6875 C7.42779297 26.99720703 7.29308594 26.30691406 7.15429688 25.59570312 C6.57225668 22.65710993 5.94847772 19.84543315 5 17 C3.35 16.67 1.7 16.34 0 16 C0.33 14.68 0.66 13.36 1 12 C1.66 12 2.32 12 3 12 C2.360625 10.88625 1.72125 9.7725 1.0625 8.625 C-0.00526106 6.76502913 -1.04071468 4.91857063 -2 3 C-1.34 2.67 -0.68 2.34 0 2 C0 1.34 0 0.68 0 0 Z " fill="#65B5E0" transform="translate(312,166)"/>
<path d="M0 0 C1.44010481 0.25662245 2.8770687 0.53090821 4.3125 0.8125 C5.11300781 0.96332031 5.91351563 1.11414063 6.73828125 1.26953125 C9.23445587 2.07572236 10.32422106 3.02052002 12 5 C9.69 4.67 7.38 4.34 5 4 C5 4.66 5 5.32 5 6 C4.34 6 3.68 6 3 6 C3.33 6.515625 3.66 7.03125 4 7.5625 C5.32010877 10.78026512 5.13242105 13.5570528 5 17 C5.66 17.33 6.32 17.66 7 18 C6.34 18.66 5.68 19.32 5 20 C1.875 19.625 1.875 19.625 -1 19 C-1 18.34 -1 17.68 -1 17 C-1.66 16.67 -2.32 16.34 -3 16 C-0.69 16 1.62 16 4 16 C4 14.68 4 13.36 4 12 C0.37 11.01 -3.26 10.02 -7 9 C-5.68 8.67 -4.36 8.34 -3 8 C-1.33823027 5.46361462 -0.70400053 2.92007175 0 0 Z M7 16 C9 17 9 17 9 17 Z " fill="#C6C8C5" transform="translate(311,321)"/>
<path d="M0 0 C3.05936637 3.75467691 5 7.08113061 5 12 C5.66 12 6.32 12 7 12 C7.33 13.65 7.66 15.3 8 17 C9.98 17 11.96 17 14 17 C14.33 18.65 14.66 20.3 15 22 C15.99 22.33 16.98 22.66 18 23 C18 23.66 18 24.32 18 25 C19.32 25 20.64 25 22 25 C23.0625 26.875 23.0625 26.875 24 29 C23.67 29.66 23.34 30.32 23 31 C22.649375 30.566875 22.29875 30.13375 21.9375 29.6875 C19.95567687 27.76363236 19.95567687 27.76363236 16.6875 26.75 C9.01455463 23.60667154 4.62729343 15.0518189 1 8 C0.12266876 5.65209448 -0.46614597 3.45572855 -1 1 C-0.67 0.67 -0.34 0.34 0 0 Z " fill="#275CBE" transform="translate(192,223)"/>
<path d="M0 0 C0.33 0 0.66 0 1 0 C0.96447021 0.66942627 0.92894043 1.33885254 0.89233398 2.02856445 C0.73270263 5.12285441 0.58504914 8.21761128 0.4375 11.3125 C0.38142578 12.36501953 0.32535156 13.41753906 0.26757812 14.50195312 C-0.01560435 20.63757347 0.10391366 26.52876284 0.75756836 32.63598633 C1.03380202 35.32961226 1.10172743 37.98080737 1.0625 40.6875 C1.05347656 41.51636719 1.04445312 42.34523437 1.03515625 43.19921875 C1.01775391 44.09060547 1.01775391 44.09060547 1 45 C-5.1858364 35.7212454 -4.21973159 20.36428986 -2.32421875 9.7265625 C-1.62481423 6.45825511 -0.87140868 3.22628689 0 0 Z " fill="#3A7AD8" transform="translate(190,179)"/>
<path d="M0 0 C0.66 0.33 1.32 0.66 2 1 C1.33333333 2.33333333 0.66666667 3.66666667 0 5 C-0.495 6.010625 -0.99 7.02125 -1.5 8.0625 C-3 11 -3 11 -5 14 C-7.31 13.67 -9.62 13.34 -12 13 C-12 11.02 -12 9.04 -12 7 C-10.35 6.67 -8.7 6.34 -7 6 C-7 5.34 -7 4.68 -7 4 C-5.5 2.375 -5.5 2.375 -4 1 C-3.01 1.33 -2.02 1.66 -1 2 C-0.67 1.34 -0.34 0.68 0 0 Z " fill="#F7F9F7" transform="translate(230,312)"/>
<path d="M0 0 C-6.435 0.495 -6.435 0.495 -13 1 C-12.67 1.66 -12.34 2.32 -12 3 C-11.64830932 4.32860925 -11.31229724 5.66158328 -11 7 C-8.36 7 -5.72 7 -3 7 C-2.34 8.32 -1.68 9.64 -1 11 C-1.99 10.34 -2.98 9.68 -4 9 C-8.65417169 8.65777555 -8.65417169 8.65777555 -13 10 C-13 9.01 -13 8.02 -13 7 C-15.44496043 5.28288757 -15.44496043 5.28288757 -18 4 C-18.2475 4.639375 -18.495 5.27875 -18.75 5.9375 C-20 8 -20 8 -22.125 8.75 C-23.053125 8.87375 -23.053125 8.87375 -24 9 C-22.64319732 4.55955487 -20.86646942 2.54835485 -17 0 C-10.92214257 -2.64254671 -5.96624477 -2.98312239 0 0 Z " fill="#B5BCBE" transform="translate(205,308)"/>
<path d="M0 0 C0 0.66 0 1.32 0 2 C-1.6029053 2.81498562 -3.20737278 3.62689927 -4.8125 4.4375 C-5.70582031 4.88996094 -6.59914062 5.34242188 -7.51953125 5.80859375 C-10 7 -10 7 -13 8 C-14.20882096 10.00016466 -14.20882096 10.00016466 -15 12 C-15.94875 11.95875 -16.8975 11.9175 -17.875 11.875 C-21.10244856 11.65026182 -21.10244856 11.65026182 -23 14 C-23.99 13.67 -24.98 13.34 -26 13 C-25.34 13 -24.68 13 -24 13 C-23.773125 12.4225 -23.54625 11.845 -23.3125 11.25 C-20.39945332 6.25620569 -15.67476792 4.21625122 -10.4375 2.25 C-9.32246094 1.82203125 -8.20742187 1.3940625 -7.05859375 0.953125 C-4 0 -4 0 0 0 Z " fill="#68A5D9" transform="translate(239,138)"/>
<path d="M0 0 C0.8644725 -0.01606293 1.72894501 -0.03212585 2.61961365 -0.04867554 C6.55043493 -0.09334372 10.48109373 -0.13415246 14.41210938 -0.15722656 C16.48481451 -0.17381471 18.55746178 -0.20114208 20.62988281 -0.23925781 C23.6247308 -0.29400823 26.61824449 -0.31589344 29.61352539 -0.33056641 C30.53761703 -0.35323578 31.46170868 -0.37590515 32.4138031 -0.39926147 C36.98584199 -0.38424291 38.96290754 -0.27571298 42.72119141 2.54980469 C44.58618164 5.19287109 44.58618164 5.19287109 44.39868164 8.00537109 C44.13055664 8.72724609 43.86243164 9.44912109 43.58618164 10.19287109 C43.25618164 10.19287109 42.92618164 10.19287109 42.58618164 10.19287109 C42.09118164 6.72787109 42.09118164 6.72787109 41.58618164 3.19287109 C37.27274 2.13933833 33.06731897 2.03171668 28.65258789 2.02490234 C27.8970311 2.02157394 27.1414743 2.01824554 26.36302185 2.01481628 C24.77034104 2.00977027 23.17764973 2.00740724 21.58496094 2.00756836 C19.1600592 2.00538136 16.73561243 1.98719987 14.31079102 1.96826172 C12.75805818 1.96532733 11.20532321 1.96334284 9.65258789 1.96240234 C8.9336586 1.95521683 8.21472931 1.94803131 7.47401428 1.94062805 C3.11620501 1.9602256 -0.34959681 2.65784905 -4.41381836 4.19287109 C-7.12443111 4.41951096 -9.68530127 4.28695789 -12.41381836 4.19287109 C-8.36181533 0.86444004 -5.17582315 0.08785 0 0 Z " fill="#D1F6FB" transform="translate(245.413818359375,194.80712890625)"/>
<path d="M0 0 C0.33 0 0.66 0 1 0 C1.67275663 15.74871518 1.83292163 30.27141213 -7 44 C-8.40907283 41.18185434 -7.50872691 39.82722796 -6.5625 36.875 C-6.13130859 35.50988281 -6.13130859 35.50988281 -5.69140625 34.1171875 C-5.46324219 33.41851562 -5.23507812 32.71984375 -5 32 C-4.34 32 -3.68 32 -3 32 C-3.01160156 31.28714844 -3.02320313 30.57429688 -3.03515625 29.83984375 C-3.04417969 28.88207031 -3.05320312 27.92429688 -3.0625 26.9375 C-3.07410156 25.99777344 -3.08570313 25.05804688 -3.09765625 24.08984375 C-2.98921726 20.65883426 -2.53075241 17.39091817 -2 14 C-1.82339844 12.76378906 -1.64679688 11.52757812 -1.46484375 10.25390625 C-0.9765625 6.8359375 -0.48828125 3.41796875 0 0 Z " fill="#5393CE" transform="translate(322,191)"/>
<path d="M0 0 C1.98 0.66 3.96 1.32 6 2 C4.68 5.3 3.36 8.6 2 12 C0.68 11.67 -0.64 11.34 -2 11 C-4.18703385 11.37907282 -4.18703385 11.37907282 -6 12 C-6 9.66666667 -6 7.33333333 -6 5 C-3.5625 3.375 -3.5625 3.375 -1 2 C-0.67 1.34 -0.34 0.68 0 0 Z " fill="#F8F8F7" transform="translate(187,312)"/>
<path d="M0 0 C1.65 1.32 3.3 2.64 5 4 C3.61350383 8.15948851 1.45062344 8.98220035 -2.3125 10.984375 C-6.79660891 12.67895104 -11.28792731 12.73384739 -16 12 C-16.99 11.34 -17.98 10.68 -19 10 C-16.36 9.67 -13.72 9.34 -11 9 C-11 9.66 -11 10.32 -11 11 C-10.34 10.34 -9.68 9.68 -9 9 C-8.01 9 -7.02 9 -6 9 C-6 8.01 -6 7.02 -6 6 C-5.34 6 -4.68 6 -4 6 C-4 5.34 -4 4.68 -4 4 C-3.01 4.33 -2.02 4.66 -1 5 C-0.67 3.35 -0.34 1.7 0 0 Z " fill="#BEC1C1" transform="translate(210,335)"/>
<path d="M0 0 C0.33 0.66 0.66 1.32 1 2 C-0.375 3.5 -0.375 3.5 -2 5 C-2.66 5 -3.32 5 -4 5 C-4.33 5.99 -4.66 6.98 -5 8 C-7.0625 9.1875 -7.0625 9.1875 -9 10 C-7.68 10.66 -6.36 11.32 -5 12 C-12.92 11.67 -20.84 11.34 -29 11 C-28 9 -28 9 -26.3671875 8.39453125 C-23.28565173 7.88094195 -20.24623999 7.80496602 -17.125 7.6875 C-11.36901657 7.31133096 -8.27675578 6.82657096 -4 3 C-3.21625 2.4225 -2.4325 1.845 -1.625 1.25 C-1.08875 0.8375 -0.5525 0.425 0 0 Z " fill="#0858AF" transform="translate(288,206)"/>
<path d="M0 0 C0.99 0.66 1.98 1.32 3 2 C-0.96 2 -4.92 2 -9 2 C-9 2.99 -9 3.98 -9 5 C-9.99 5 -10.98 5 -12 5 C-12 5.66 -12 6.32 -12 7 C-12.66 7 -13.32 7 -14 7 C-14.33 7.99 -14.66 8.98 -15 10 C-15.66 10 -16.32 10 -17 10 C-17 10.66 -17 11.32 -17 12 C-18.65 12.33 -20.3 12.66 -22 13 C-20.17701402 7.19959006 -16.97556764 4.08097097 -11.6875 1.1875 C-7.35800262 -0.20674492 -4.51819354 -0.37651613 0 0 Z " fill="#B4BDBF" transform="translate(240,306)"/>
<path d="M0 0 C3.63 0 7.26 0 11 0 C11.33 0.99 11.66 1.98 12 3 C11.34 3 10.68 3 10 3 C9.67 4.65 9.34 6.3 9 8 C7.68 8 6.36 8 5 8 C5 7.34 5 6.68 5 6 C2.69 6.33 0.38 6.66 -2 7 C-1.125 3.125 -1.125 3.125 0 2 C0 1.34 0 0.68 0 0 Z " fill="#F1F6EF" transform="translate(194,338)"/>
<path d="M0 0 C0.33 0.66 0.66 1.32 1 2 C2.65 1.67 4.3 1.34 6 1 C6 1.99 6 2.98 6 4 C4.10667466 4.81832722 2.21022267 5.62942268 0.3125 6.4375 C-0.74324219 6.88996094 -1.79898437 7.34242188 -2.88671875 7.80859375 C-8.06071678 9.78860554 -12.47053382 10.10842091 -18 10 C-17.67 9.01 -17.34 8.02 -17 7 C-16.41992188 6.96261719 -15.83984375 6.92523438 -15.2421875 6.88671875 C-10.21575144 6.46370185 -6.35293191 5.76039585 -2 3 C-1.34 2.01 -0.68 1.02 0 0 Z " fill="#2959B3" transform="translate(282,258)"/>
<path d="M0 0 C1.32 0.66 2.64 1.32 4 2 C4.125 7.75 4.125 7.75 3 10 C1.68 10 0.36 10 -1 10 C-1 11.65 -1 13.3 -1 15 C-6.28 14.67 -11.56 14.34 -17 14 C-17 13.01 -17 12.02 -17 11 C-16.01 11.495 -16.01 11.495 -15 12 C-12.95944995 12.07065617 -10.91665743 12.08421976 -8.875 12.0625 C-7.77929688 12.05347656 -6.68359375 12.04445313 -5.5546875 12.03515625 C-4.71164063 12.02355469 -3.86859375 12.01195312 -3 12 C-3 11.01 -3 10.02 -3 9 C-3.99 8.67 -4.98 8.34 -6 8 C-3.68143083 6.45428722 -1.49361571 5.20381448 1 4 C0.67 2.68 0.34 1.36 0 0 Z " fill="#A5A7A8" transform="translate(245,309)"/>
<path d="M0 0 C1.625 1.6875 1.625 1.6875 3 4 C2.00111635 8.61983689 -1.22408559 12.27443066 -4 16 C-3.01 16.33 -2.02 16.66 -1 17 C-1 17.66 -1 18.32 -1 19 C-4.63 18.34 -8.26 17.68 -12 17 C-10 14 -10 14 -7 13 C-6.67 12.34 -6.34 11.68 -6 11 C-5.34 11 -4.68 11 -4 11 C-3.67 10.01 -3.34 9.02 -3 8 C-2.34 8 -1.68 8 -1 8 C-1.33 7.01 -1.66 6.02 -2 5 C-1.0625 2.3125 -1.0625 2.3125 0 0 Z " fill="#2995EB" transform="translate(290,200)"/>
<path d="M0 0 C0.66 0.33 1.32 0.66 2 1 C2 1.66 2 2.32 2 3 C1.360625 3.28875 0.72125 3.5775 0.0625 3.875 C-2.15206079 4.82823451 -2.15206079 4.82823451 -3 7 C-3.66 7 -4.32 7 -5 7 C-5.33 7.66 -5.66 8.32 -6 9 C-7.32 9 -8.64 9 -10 9 C-10 8.01 -10 7.02 -10 6 C-13.11785113 6.64644661 -13.11785113 6.64644661 -14 9 C-15.65 8.67 -17.3 8.34 -19 8 C-19 7.34 -19 6.68 -19 6 C-18.34 6 -17.68 6 -17 6 C-17 5.34 -17 4.68 -17 4 C-16.34 4.33 -15.68 4.66 -15 5 C-14.67 4.67 -14.34 4.34 -14 4 C-13.34 3.34 -12.68 2.68 -12 2 C-9.98528502 2.22385722 -7.96854744 2.45418316 -5.97265625 2.80859375 C-3.7887865 3.15535648 -3.7887865 3.15535648 -1 2 C-0.67 1.34 -0.34 0.68 0 0 Z " fill="#F8FAF5" transform="translate(322,337)"/>
<path d="M0 0 C3.06630664 0.8974556 4.73038808 1.73038808 7 4 C7 5.32 7 6.64 7 8 C5.02 8.99 3.04 9.98 1 11 C0.67 10.01 0.34 9.02 0 8 C-0.99 8.495 -0.99 8.495 -2 9 C-1.125 5.125 -1.125 5.125 0 4 C-0.99 3.34 -1.98 2.68 -3 2 C-2.01 1.34 -1.02 0.68 0 0 Z " fill="#CACED1" transform="translate(245,334)"/>
<path d="M0 0 C11.55 0 23.1 0 35 0 C35 0.33 35 0.66 35 1 C17.675 1.99 17.675 1.99 0 3 C0 2.01 0 1.02 0 0 Z " fill="#0F78D1" transform="translate(237,191)"/>
<path d="M0 0 C0.33 1.32 0.66 2.64 1 4 C0.37351563 4.16371094 -0.25296875 4.32742187 -0.8984375 4.49609375 C-3.40240851 5.95127597 -3.40240851 5.95127597 -3.9765625 9.66015625 C-4.21028527 11.12490745 -4.42578594 12.59265778 -4.625 14.0625 C-5.01320578 16.73603625 -5.46552994 19.34820626 -6 22 C-6.66 22.33 -7.32 22.66 -8 23 C-8.08165496 20.79229195 -8.13948488 18.58369575 -8.1875 16.375 C-8.23970703 14.53035156 -8.23970703 14.53035156 -8.29296875 12.6484375 C-7.97448544 8.68225867 -7.09391642 6.35816784 -5 3 C-2.3125 1.125 -2.3125 1.125 0 0 Z " fill="#277BE3" transform="translate(222,182)"/>
<path d="M0 0 C0.66 0 1.32 0 2 0 C2.33 0.99 2.66 1.98 3 3 C3.99 3.33 4.98 3.66 6 4 C5.48050781 4.25394531 4.96101562 4.50789062 4.42578125 4.76953125 C0.51164638 6.70127618 -3.28294465 8.70417169 -7 11 C-7.99 11.495 -7.99 11.495 -9 12 C-8.35154312 8.49833282 -7.06154347 5.90143154 -5 3 C-2.875 1.75 -2.875 1.75 -1 1 C-0.67 0.67 -0.34 0.34 0 0 Z " fill="#1B62AB" transform="translate(233,192)"/>
<path d="M0 0 C3.13138355 3.13138355 4.89746937 6.4278637 5.1875 10.875 C5.0946875 11.926875 5.0946875 11.926875 5 13 C2.625 12.75 2.625 12.75 0 12 C-0.2475 11.34 -0.495 10.68 -0.75 10 C-1.36875 9.01 -1.36875 9.01 -2 8 C-5.10930941 7.29327794 -5.10930941 7.29327794 -8.625 7.25 C-9.81351562 7.19328125 -11.00203125 7.1365625 -12.2265625 7.078125 C-13.14179688 7.05234375 -14.05703125 7.0265625 -15 7 C-15 6.67 -15 6.34 -15 6 C-12.70839681 5.97307516 -10.41670454 5.95363876 -8.125 5.9375 C-6.84882813 5.92589844 -5.57265625 5.91429687 -4.2578125 5.90234375 C-1 6 -1 6 1 7 C0.67 4.69 0.34 2.38 0 0 Z " fill="#989FA6" transform="translate(349,317)"/>
<path d="M0 0 C9.625 -0.25 9.625 -0.25 13 2 C12 3 12 3 9.71484375 3.09765625 C7.14322917 3.06510417 4.57161458 3.03255208 2 3 C2 6.3 2 9.6 2 13 C1.01 13.495 1.01 13.495 0 14 C0 9.38 0 4.76 0 0 Z " fill="#FBFDFC" transform="translate(358,301)"/>
<path d="M0 0 C-1.47559669 4.42679007 -3.90057368 4.91432696 -8 7 C-8.66 7 -9.32 7 -10 7 C-10.0825 7.78375 -10.165 8.5675 -10.25 9.375 C-11 12 -11 12 -13.0625 13.3125 C-14.0215625 13.6528125 -14.0215625 13.6528125 -15 14 C-14.29399221 9.76395325 -13.61561584 6.32886152 -10.1953125 3.515625 C-9.51210937 3.09796875 -8.82890625 2.6803125 -8.125 2.25 C-7.44695312 1.82203125 -6.76890625 1.3940625 -6.0703125 0.953125 C-4 0 -4 0 0 0 Z " fill="#D9F5FB" transform="translate(238,172)"/>
<path d="M0 0 C0.33 0 0.66 0 1 0 C1 8.25 1 16.5 1 25 C1.66 25 2.32 25 3 25 C3.495 20.545 3.495 20.545 4 16 C7.63 16 11.26 16 15 16 C15 16.33 15 16.66 15 17 C12.03 17.33 9.06 17.66 6 18 C5.67 20.64 5.34 23.28 5 26 C4.01 26.33 3.02 26.66 2 27 C1.34 26.67 0.68 26.34 0 26 C0 17.42 0 8.84 0 0 Z " fill="#8B95A1" transform="translate(379,302)"/>
<path d="M0 0 C-0.1875 1.875 -0.1875 1.875 -1 4 C-4.37823976 5.87679987 -7.17632299 6.21849583 -11 6 C-11 4.35 -11 2.7 -11 1 C-7.2297564 -1.56376565 -4.32597804 -0.83191885 0 0 Z " fill="#1756BA" transform="translate(249,216)"/>
<path d="M0 0 C0.33 0 0.66 0 1 0 C1 4.62 1 9.24 1 14 C0.34 13.34 -0.32 12.68 -1 12 C-3.6215642 11.72172748 -3.6215642 11.72172748 -6.6640625 11.8046875 C-8.34628906 11.81435547 -8.34628906 11.81435547 -10.0625 11.82421875 C-11.238125 11.84097656 -12.41375 11.85773438 -13.625 11.875 C-14.80835938 11.88402344 -15.99171875 11.89304687 -17.2109375 11.90234375 C-20.14082523 11.92597188 -23.0703134 11.95891486 -26 12 C-26.33 12.66 -26.66 13.32 -27 14 C-27 13.01 -27 12.02 -27 11 C-18.75 11 -10.5 11 -2 11 C-2 8.36 -2 5.72 -2 3 C-1.34 2.01 -0.68 1.02 0 0 Z " fill="#57565B" transform="translate(217,319)"/>
<path d="M0 0 C0.33 0 0.66 0 1 0 C1.19532961 1.7699868 1.38098882 3.54104279 1.5625 5.3125 C1.66691406 6.29863281 1.77132812 7.28476563 1.87890625 8.30078125 C2 11 2 11 1 14 C4.3 14 7.6 14 11 14 C11 9.71 11 5.42 11 1 C11.33 1 11.66 1 12 1 C12 6.28 12 11.56 12 17 C8.04 16.67 4.08 16.34 0 16 C0 10.72 0 5.44 0 0 Z " fill="#D1E8F4" transform="translate(222,216)"/>
<path d="M0 0 C0.8971875 0.309375 0.8971875 0.309375 1.8125 0.625 C0.8225 0.955 -0.1675 1.285 -1.1875 1.625 C-2.1775 3.11 -2.1775 3.11 -3.1875 4.625 C-4.1775 5.12 -4.1775 5.12 -5.1875 5.625 C-4.878125 6.429375 -4.878125 6.429375 -4.5625 7.25 C-4.0560253 10.45767308 -5.03349775 12.63817066 -6.1875 15.625 C-7.1775 15.295 -8.1675 14.965 -9.1875 14.625 C-9.64425183 8.91560212 -8.80855556 6.07372541 -5.1875 1.625 C-2.1875 -0.375 -2.1875 -0.375 0 0 Z " fill="#C7CBD2" transform="translate(304.1875,307.375)"/>
<path d="M0 0 C1.98 0.66 3.96 1.32 6 2 C6 2.66 6 3.32 6 4 C7.32 4 8.64 4 10 4 C10 4.66 10 5.32 10 6 C11.65 6.33 13.3 6.66 15 7 C15.33 8.65 15.66 10.3 16 12 C11.95775915 10.60411827 9.05851515 8.69435964 5.75 6 C4.87859375 5.29875 4.0071875 4.5975 3.109375 3.875 C1 2 1 2 0 0 Z " fill="#1C4598" transform="translate(207,249)"/>
<path d="M0 0 C0.99 0.33 1.98 0.66 3 1 C3 2.65 3 4.3 3 6 C2.34 6 1.68 6 1 6 C1 7.65 1 9.3 1 11 C-0.32 11.33 -1.64 11.66 -3 12 C-3.2954439 6.97745369 -2.98514628 4.10457614 0 0 Z " fill="#D6DBDF" transform="translate(340,299)"/>
<path d="M0 0 C4.29 0.33 8.58 0.66 13 1 C11.68 2.65 10.36 4.3 9 6 C8.34 6 7.68 6 7 6 C6.34 5.34 5.68 4.68 5 4 C4.01 3.67 3.02 3.34 2 3 C1.566875 3.495 1.13375 3.99 0.6875 4.5 C-1 6 -1 6 -4 6 C-3.67 5.01 -3.34 4.02 -3 3 C-2.01 3 -1.02 3 0 3 C0 2.01 0 1.02 0 0 Z " fill="#67C8F5" transform="translate(239,137)"/>
<path d="M0 0 C0.598125 0.226875 1.19625 0.45375 1.8125 0.6875 C1.4825 3.3275 1.1525 5.9675 0.8125 8.6875 C-1.4975 8.3575 -3.8075 8.0275 -6.1875 7.6875 C-5.82037028 4.97074005 -5.46005401 3.07686287 -3.875 0.8125 C-2.1875 -0.3125 -2.1875 -0.3125 0 0 Z " fill="#F6F8F6" transform="translate(309.1875,321.3125)"/>
<path d="M0 0 C0.33 0 0.66 0 1 0 C1 8.58 1 17.16 1 26 C0.34 26.33 -0.32 26.66 -1 27 C-1.78781006 22.09807074 -2.03150329 18.11118548 -1.25390625 13.16015625 C-0.85594083 9.77438887 -0.97936851 6.40710171 -1.0625 3.00390625 C-1 1 -1 1 0 0 Z " fill="#236FDC" transform="translate(215,205)"/>
<path d="M0 0 C2 2 2 2 2.3125 5.3125 C1.87070137 10.52572379 0.29241419 12.80451687 -3.5 16.3125 C-6 18 -6 18 -9 18 C-8.505 16.515 -8.505 16.515 -8 15 C-7.34 15.33 -6.68 15.66 -6 16 C-5.67 15.01 -5.34 14.02 -5 13 C-2.9375 12.3125 -2.9375 12.3125 -1 12 C-1.33 10.68 -1.66 9.36 -2 8 C-1.01 7.67 -0.02 7.34 1 7 C0.67 4.69 0.34 2.38 0 0 Z " fill="#AFB4B7" transform="translate(325,328)"/>
<path d="M0 0 C0.33 0 0.66 0 1 0 C0.67 5.61 0.34 11.22 0 17 C-0.66 17 -1.32 17 -2 17 C-2 21.95 -2 26.9 -2 32 C-2.33 32 -2.66 32 -3 32 C-3.34207192 20.82565057 -2.93465298 10.86520329 0 0 Z " fill="#285091" transform="translate(190,179)"/>
<path d="M0 0 C0.66 0.33 1.32 0.66 2 1 C1.67 1.61875 1.34 2.2375 1 2.875 C-0.14193235 4.91018344 -0.14193235 4.91018344 0 7 C-0.66 7 -1.32 7 -2 7 C-2.33 7.66 -2.66 8.32 -3 9 C-4.32 9 -5.64 9 -7 9 C-7 9.66 -7 10.32 -7 11 C-8.65 11.33 -10.3 11.66 -12 12 C-8.32167983 7.47384007 -4.58913637 3.60575001 0 0 Z " fill="#5A94D0" transform="translate(215,147)"/>
<path d="M0 0 C-0.61875 0.2475 -1.2375 0.495 -1.875 0.75 C-4.35068687 2.20628639 -4.95125002 3.37812506 -6 6 C-6.94875 5.95875 -7.8975 5.9175 -8.875 5.875 C-12.10244856 5.65026182 -12.10244856 5.65026182 -14 8 C-14.99 7.67 -15.98 7.34 -17 7 C-16.34 7 -15.68 7 -15 7 C-14.79375 6.401875 -14.5875 5.80375 -14.375 5.1875 C-12.02714194 1.45227126 -8.37656527 0.37542689 -4.25 -0.75 C-2 -1 -2 -1 0 0 Z " fill="#63B8F2" transform="translate(230,144)"/>
<path d="M0 0 C3.3 0 6.6 0 10 0 C9.01 0.495 9.01 0.495 8 1 C7.34227572 4.02934491 7.34227572 4.02934491 7 7 C5.68 7 4.36 7 3 7 C1 4 1 4 0 0 Z " fill="#F9FBF7" transform="translate(191,308)"/>
<path d="M0 0 C3.05936637 3.75467691 5 7.08113061 5 12 C5.66 12 6.32 12 7 12 C7.12375 12.804375 7.2475 13.60875 7.375 14.4375 C7.58125 15.283125 7.7875 16.12875 8 17 C8.66 17.33 9.32 17.66 10 18 C9.01 18 8.02 18 7 18 C2.99960734 12.94097926 0.36342611 7.27176012 -1 1 C-0.67 0.67 -0.34 0.34 0 0 Z " fill="#254C9F" transform="translate(192,223)"/>
<path d="M0 0 C0.33 0.66 0.66 1.32 1 2 C-0.375 3.5 -0.375 3.5 -2 5 C-2.66 5 -3.32 5 -4 5 C-4.33 5.99 -4.66 6.98 -5 8 C-7.0625 9.1875 -7.0625 9.1875 -9 10 C-7.68 10.66 -6.36 11.32 -5 12 C-7.97 11.67 -10.94 11.34 -14 11 C-14 10.34 -14 9.68 -14 9 C-12.68 9 -11.36 9 -10 9 C-10 8.34 -10 7.68 -10 7 C-8.03501678 5.61558 -6.02951535 4.28796166 -4 3 C-2.65824027 2.01133494 -1.32103998 1.0161846 0 0 Z " fill="#1769C0" transform="translate(288,206)"/>
<path d="M0 0 C0.99 0.33 1.98 0.66 3 1 C3 3.31 3 5.62 3 8 C3.66 8.33 4.32 8.66 5 9 C4.34 9.66 3.68 10.32 3 11 C-0.125 10.625 -0.125 10.625 -3 10 C-3 9.34 -3 8.68 -3 8 C-3.66 7.67 -4.32 7.34 -5 7 C-2.69 7 -0.38 7 2 7 C2 5.68 2 4.36 2 3 C0.35 2.67 -1.3 2.34 -3 2 C-2.01 1.34 -1.02 0.68 0 0 Z M5 7 C7 8 7 8 7 8 Z " fill="#B0B6B5" transform="translate(313,330)"/>
<path d="M0 0 C0.66 0.33 1.32 0.66 2 1 C2.9375 4.1875 2.9375 4.1875 3 8 C1.58469726 10.41125652 0.00269309 11.99730691 -2 14 C-2.66 13.67 -3.32 13.34 -4 13 C-4 12.34 -4 11.68 -4 11 C-4.66 10.67 -5.32 10.34 -6 10 C-5.34 9.34 -4.68 8.68 -4 8 C-3.30251417 6.68252676 -2.63040043 5.35085807 -2 4 C-1.67 5.65 -1.34 7.3 -1 9 C-0.34 9 0.32 9 1 9 C0.67 6.03 0.34 3.06 0 0 Z " fill="#A6ABC1" transform="translate(398,304)"/>
<path d="M0 0 C0.66 0.66 1.32 1.32 2 2 C1.67 2.66 1.34 3.32 1 4 C2.32 4.66 3.64 5.32 5 6 C3.68 6.99 2.36 7.98 1 9 C-0.9375 8.1875 -0.9375 8.1875 -3 7 C-3.33 6.01 -3.66 5.02 -4 4 C-2.68 2.68 -1.36 1.36 0 0 Z " fill="#D8DAD7" transform="translate(185,332)"/>
<path d="M0 0 C0.66 0.33 1.32 0.66 2 1 C1.67 1.66 1.34 2.32 1 3 C-0.32 2.67 -1.64 2.34 -3 2 C-3.33 3.32 -3.66 4.64 -4 6 C-5.65 6.33 -7.3 6.66 -9 7 C-8.625 4.0625 -8.625 4.0625 -8 1 C-5.26094655 -0.36952673 -3.02912668 -0.12621361 0 0 Z " fill="#E0E2DE" transform="translate(207,308)"/>
<path d="M0 0 C0.99 0.33 1.98 0.66 3 1 C1.02 3.97 1.02 3.97 -1 7 C-0.67 7.33 -0.34 7.66 0 8 C0.66 7.67 1.32 7.34 2 7 C0.75023244 10.65316671 0.32901247 11.78065836 -3 14 C-3.02698189 12.37509046 -3.04638757 10.75005367 -3.0625 9.125 C-3.07410156 8.22007812 -3.08570313 7.31515625 -3.09765625 6.3828125 C-3 4 -3 4 -2 2 C-1.34 2 -0.68 2 0 2 C0 1.34 0 0.68 0 0 Z " fill="#E9EFEB" transform="translate(226,194)"/>
<path d="M0 0 C1.25683594 0.00322266 2.51367188 0.00644531 3.80859375 0.00976562 C5.12730469 0.01814453 6.44601563 0.02652344 7.8046875 0.03515625 C9.14452961 0.04017136 10.4843735 0.04473424 11.82421875 0.04882812 C15.10941956 0.06064539 18.39453147 0.07712008 21.6796875 0.09765625 C21.6796875 0.42765625 21.6796875 0.75765625 21.6796875 1.09765625 C21.0091333 1.1227124 20.3385791 1.14776855 19.64770508 1.17358398 C16.5956916 1.28996426 13.54395492 1.41249973 10.4921875 1.53515625 C9.43708984 1.57447266 8.38199219 1.61378906 7.29492188 1.65429688 C5.76254883 1.71713867 5.76254883 1.71713867 4.19921875 1.78125 C3.26182861 1.81790771 2.32443848 1.85456543 1.35864258 1.89233398 C-1.34911494 2.02996897 -1.34911494 2.02996897 -4.0402832 2.74243164 C-4.79269287 2.85965576 -5.54510254 2.97687988 -6.3203125 3.09765625 C-6.9803125 2.43765625 -7.6403125 1.77765625 -8.3203125 1.09765625 C-5.50207058 -0.31146471 -3.14779968 -0.01417928 0 0 Z " fill="#1D7DC0" transform="translate(245.3203125,192.90234375)"/>
<path d="M0 0 C3.465 1.485 3.465 1.485 7 3 C6.01 3.33 5.02 3.66 4 4 C3.34 3.67 2.68 3.34 2 3 C1.67 4.32 1.34 5.64 1 7 C-0.65 6.67 -2.3 6.34 -4 6 C-3.67 6.99 -3.34 7.98 -3 9 C-3.66 9 -4.32 9 -5 9 C-5 5 -5 5 -2.5 2.25 C-1.675 1.5075 -0.85 0.765 0 0 Z " fill="#A2A6A9" transform="translate(299,333)"/>
<path d="M0 0 C2.35716404 2.15454249 3.78966144 4.19719874 5.1875 7.0625 C5.53167969 7.75472656 5.87585938 8.44695312 6.23046875 9.16015625 C7 11 7 11 7 13 C6.01 13 5.02 13 4 13 C3.938125 12.443125 3.87625 11.88625 3.8125 11.3125 C2.66626128 8.05012827 0.50609803 6.31332126 -2 4 C-1.34 3.34 -0.68 2.68 0 2 C0 1.34 0 0.68 0 0 Z " fill="#73B6DB" transform="translate(312,166)"/>
<path d="M0 0 C0.66 0.66 1.32 1.32 2 2 C0.02 3.32 -1.96 4.64 -4 6 C-4.66 5.67 -5.32 5.34 -6 5 C-6.66 7.31 -7.32 9.62 -8 12 C-8.99 12 -9.98 12 -11 12 C-9.68 9.36 -8.36 6.72 -7 4 C-6.34 4 -5.68 4 -5 4 C-5 3.34 -5 2.68 -5 2 C-3.35 1.34 -1.7 0.68 0 0 Z " fill="#4EACF8" transform="translate(213,154)"/>
<path d="M0 0 C1.98 0.495 1.98 0.495 4 1 C3.34 3.64 2.68 6.28 2 9 C1.34 9 0.68 9 0 9 C0 10.65 0 12.3 0 14 C-0.33 14 -0.66 14 -1 14 C-1.02685938 11.85423363 -1.04633088 9.70837355 -1.0625 7.5625 C-1.07410156 6.36753906 -1.08570313 5.17257813 -1.09765625 3.94140625 C-1 1 -1 1 0 0 Z " fill="#1B4491" transform="translate(235,215)"/>
<path d="M0 0 C0.99 0.66 1.98 1.32 3 2 C3.125 4.5 3.125 4.5 3 7 C3.33 7.66 3.66 8.32 4 9 C1 11 1 11 -1.6875 10.625 C-2.450625 10.41875 -3.21375 10.2125 -4 10 C-3.525625 9.649375 -3.05125 9.29875 -2.5625 8.9375 C-0.32126175 6.15836457 -0.32882342 3.4855283 0 0 Z " fill="#4DACE6" transform="translate(289,175)"/>
<path d="M0 0 C0.99 0.33 1.98 0.66 3 1 C2.67 1.78375 2.34 2.5675 2 3.375 C0.88133489 5.84332497 0.88133489 5.84332497 1 8 C-0.65 8 -2.3 8 -4 8 C-4.33 7.34 -4.66 6.68 -5 6 C-3.625 4 -3.625 4 -2 2 C-1.34 2 -0.68 2 0 2 C0 1.34 0 0.68 0 0 Z " fill="#27A3F3" transform="translate(285,186)"/>
<path d="M0 0 C0.99 0.33 1.98 0.66 3 1 C3.33 3.64 3.66 6.28 4 9 C0.04 8.67 -3.92 8.34 -8 8 C-8 7.67 -8 7.34 -8 7 C-5.36 7 -2.72 7 0 7 C0 4.69 0 2.38 0 0 Z " fill="#F4F7FA" transform="translate(346,315)"/>
<path d="M0 0 C1.65 0 3.3 0 5 0 C4.67 0.66 4.34 1.32 4 2 C3.34 2 2.68 2 2 2 C2 5.96 2 9.92 2 14 C1.34 14 0.68 14 0 14 C0 9.38 0 4.76 0 0 Z " fill="#FDFCFA" transform="translate(381,302)"/>
<path d="M0 0 C0.66 0 1.32 0 2 0 C2 1.32 2 2.64 2 4 C2.99 4 3.98 4 5 4 C5 6.31 5 8.62 5 11 C4.34 10.01 3.68 9.02 3 8 C0.43717258 7.27034634 0.43717258 7.27034634 -2 7 C-1.67 5.68 -1.34 4.36 -1 3 C-0.34 3 0.32 3 1 3 C0.67 2.01 0.34 1.02 0 0 Z " fill="#65C9F5" transform="translate(314,175)"/>
<path d="M0 0 C1.258125 0.12375 2.51625 0.2475 3.8125 0.375 C4.87404297 0.47941406 4.87404297 0.47941406 5.95703125 0.5859375 C8 1 8 1 11 3 C8 5 8 5 5 6 C2.3125 5.0625 2.3125 5.0625 0 4 C0 2.66666667 0 1.33333333 0 0 Z " fill="#79C7E0" transform="translate(267,137)"/>
<path d="M0 0 C1.98 0.495 1.98 0.495 4 1 C4 1.66 4 2.32 4 3 C5.32 3.33 6.64 3.66 8 4 C7.34 4 6.68 4 6 4 C6.95865509 6.33075929 6.95865509 6.33075929 10 8 C4.96014269 7.55530671 2.62365012 5.28656638 -1 2 C-0.67 1.34 -0.34 0.68 0 0 Z " fill="#AFB0AE" transform="translate(259,338)"/>
<path d="M0 0 C0.66 0 1.32 0 2 0 C2 0.66 2 1.32 2 2 C2.66 2 3.32 2 4 2 C3.67 2.99 3.34 3.98 3 5 C2.34 5 1.68 5 1 5 C1 5.66 1 6.32 1 7 C-0.65 7.33 -2.3 7.66 -4 8 C-2.87548273 5.0280615 -1.77706209 2.66559313 0 0 Z " fill="#CDD2D3" transform="translate(222,311)"/>
<path d="M0 0 C3.375 -0.125 3.375 -0.125 7 0 C7.66 0.66 8.32 1.32 9 2 C7.02 2 5.04 2 3 2 C2.67 4.97 2.34 7.94 2 11 C1.34 11 0.68 11 0 11 C0 7.37 0 3.74 0 0 Z " fill="#959EA5" transform="translate(383,304)"/>
<path d="M0 0 C3.67176009 -0.34155908 5.58028931 -0.24249951 8.8125 1.625 C11.40674134 4.44160489 11.74327938 6.2347642 12 10 C11.01 10.495 11.01 10.495 10 11 C10 9.02 10 7.04 10 5 C8.68 4.67 7.36 4.34 6 4 C6 3.34 6 2.68 6 2 C3.03 1.505 3.03 1.505 0 1 C0 0.67 0 0.34 0 0 Z " fill="#D9FAFE" transform="translate(277,172)"/>
<path d="M0 0 C1.5625 1.6875 1.5625 1.6875 3 4 C2.6875 6.75 2.6875 6.75 2 9 C0.35 8.67 -1.3 8.34 -3 8 C-2.01 5.36 -1.02 2.72 0 0 Z " fill="#A8AEB7" transform="translate(331,320)"/>
<path d="M0 0 C1.32 0 2.64 0 4 0 C2.7508258 3.45925163 1.32472205 6.14693203 -1 9 C-1.99 8.67 -2.98 8.34 -4 8 C-3.67 6.68 -3.34 5.36 -3 4 C-2.01 4 -1.02 4 0 4 C0 2.68 0 1.36 0 0 Z " fill="#3984CB" transform="translate(310,235)"/>
<path d="M0 0 C0.78375 0.04125 1.5675 0.0825 2.375 0.125 C2.045 1.115 1.715 2.105 1.375 3.125 C2.15875 3.228125 2.9425 3.33125 3.75 3.4375 C6.375 4.125 6.375 4.125 8.375 7.125 C3.51536821 6.51754603 -0.3655518 4.39741033 -4.625 2.125 C-2.625 0.125 -2.625 0.125 0 0 Z " fill="#86D8F2" transform="translate(277.625,139.875)"/>
<path d="M0 0 C0.99 0.33 1.98 0.66 3 1 C3 1.66 3 2.32 3 3 C3.99 3.33 4.98 3.66 6 4 C4.515 6.475 4.515 6.475 3 9 C1.68 8.67 0.36 8.34 -1 8 C-0.01 7.01 0.98 6.02 2 5 C1.01 4.34 0.02 3.68 -1 3 C-0.67 2.01 -0.34 1.02 0 0 Z " fill="#F1F3EE" transform="translate(187,333)"/>
<path d="M0 0 C3.96 0.33 7.92 0.66 12 1 C8 3 8 3 5 3 C5 3.66 5 4.32 5 5 C3.68 5.33 2.36 5.66 1 6 C0 3 0 3 0 0 Z " fill="#3EAAF8" transform="translate(225,169)"/>
<path d="M0 0 C0.99 0.33 1.98 0.66 3 1 C2.67 1.99 2.34 2.98 2 4 C3.32 4.33 4.64 4.66 6 5 C4.22950311 5.05410687 2.45853151 5.09284119 0.6875 5.125 C-0.79169922 5.15980469 -0.79169922 5.15980469 -2.30078125 5.1953125 C-5 5 -5 5 -8 3 C-5.03 3.495 -5.03 3.495 -2 4 C-1.34 2.68 -0.68 1.36 0 0 Z " fill="#C5C5C2" transform="translate(310,342)"/>
<path d="M0 0 C-3.91711402 3.24174953 -5.9107013 3 -11 3 C-11.33 2.01 -11.66 1.02 -12 0 C-3.42857143 -1.28571429 -3.42857143 -1.28571429 0 0 Z " fill="#F3F8F4" transform="translate(246,338)"/>
<path d="M0 0 C1.32 0.66 2.64 1.32 4 2 C4 4.31 4 6.62 4 9 C3.01 8.67 2.02 8.34 1 8 C0.01 8.495 0.01 8.495 -1 9 C-0.67 6.03 -0.34 3.06 0 0 Z " fill="#D8DDDC" transform="translate(209,311)"/>
<path d="M0 0 C1.65 0.99 3.3 1.98 5 3 C4.8125 6.3125 4.8125 6.3125 4 10 C1.4375 11.9375 1.4375 11.9375 -1 13 C-1 12.34 -1 11.68 -1 11 C-0.34 11 0.32 11 1 11 C1.66 8.36 2.32 5.72 3 3 C2.01 2.67 1.02 2.34 0 2 C0 1.34 0 0.68 0 0 Z " fill="#CFF2FD" transform="translate(284,219)"/>
<path d="M0 0 C0.66 0.33 1.32 0.66 2 1 C1.01 2.485 1.01 2.485 0 4 C-0.66 4 -1.32 4 -2 4 C-2 5.65 -2 7.3 -2 9 C-4.31 9 -6.62 9 -9 9 C-7 6 -7 6 -4 5 C-3.67 4.34 -3.34 3.68 -3 3 C-2.34 3 -1.68 3 -1 3 C-0.67 2.01 -0.34 1.02 0 0 Z " fill="#1384E4" transform="translate(287,208)"/>
<path d="M0 0 C0.66 0 1.32 0 2 0 C2.33 0.66 2.66 1.32 3 2 C4.88764903 2.68472665 4.88764903 2.68472665 7.0625 3.125 C7.79597656 3.29257812 8.52945312 3.46015625 9.28515625 3.6328125 C9.85105469 3.75398438 10.41695313 3.87515625 11 4 C11 4.33 11 4.66 11 5 C7.99011728 5.58052245 5.07110598 6.05989746 2 6 C-0.0625 4.0625 -0.0625 4.0625 -1 2 C-0.67 1.34 -0.34 0.68 0 0 Z " fill="#A5A7A9" transform="translate(281,341)"/>
<path d="M0 0 C0.66 0.33 1.32 0.66 2 1 C-1.75 5.875 -1.75 5.875 -4 7 C-4.33 7.99 -4.66 8.98 -5 10 C-5.99 10.33 -6.98 10.66 -8 11 C-6.125 6.25 -6.125 6.25 -5 4 C-4.34 4 -3.68 4 -3 4 C-3 3.34 -3 2.68 -3 2 C-2.01 1.34 -1.02 0.68 0 0 Z " fill="#ADBBC0" transform="translate(263,309)"/>
<path d="M0 0 C6.20988129 0.44356295 10.60540561 1.91532502 16 5 C13.13421241 6.16161779 11.98369837 5.9946154 8.984375 5.00390625 C7.91703125 4.52824219 6.8496875 4.05257813 5.75 3.5625 C4.67234375 3.08941406 3.5946875 2.61632812 2.484375 2.12890625 C1.66453125 1.75636719 0.8446875 1.38382812 0 1 C0 0.67 0 0.34 0 0 Z " fill="#13357D" transform="translate(223,261)"/>
<path d="M0 0 C1.32 0 2.64 0 4 0 C4 0.66 4 1.32 4 2 C3.34 2 2.68 2 2 2 C1.7525 2.598125 1.505 3.19625 1.25 3.8125 C-0.16370012 6.28647521 -1.65055383 7.43370255 -4 9 C-4 7.35 -4 5.7 -4 4 C-3.01 4.33 -2.02 4.66 -1 5 C-0.67 3.35 -0.34 1.7 0 0 Z " fill="#2D6DAB" transform="translate(304,244)"/>
<path d="M0 0 C1.98 0 3.96 0 6 0 C6.33 0.99 6.66 1.98 7 3 C2.38 3 -2.24 3 -7 3 C-7 2.67 -7 2.34 -7 2 C-4.69 2 -2.38 2 0 2 C0 1.34 0 0.68 0 0 Z " fill="#2D63BE" transform="translate(226,232)"/>
<path d="M0 0 C0.33 0.66 0.66 1.32 1 2 C3.64 1.67 6.28 1.34 9 1 C6.08273524 2.94484317 3.13164127 4.43417937 0 6 C-0.99 6.66 -1.98 7.32 -3 8 C-2.37240135 5.07120629 -1.41377341 2.63904371 0 0 Z " fill="#5D81A1" transform="translate(227,196)"/>
<path d="M0 0 C2.31 0.33 4.62 0.66 7 1 C7 2.32 7 3.64 7 5 C6.01 5.495 6.01 5.495 5 6 C2.9375 5.3125 2.9375 5.3125 1 4 C0.25 1.875 0.25 1.875 0 0 Z " fill="#CDCFD0" transform="translate(295,339)"/>
<path d="M0 0 C0.33 0 0.66 0 1 0 C1 4.62 1 9.24 1 14 C0.67 13.01 0.34 12.02 0 11 C-0.66 11 -1.32 11 -2 11 C-2.25 3.375 -2.25 3.375 0 0 Z " fill="#868C8F" transform="translate(217,319)"/>
<path d="M0 0 C0.33 0 0.66 0 1 0 C1 1.98 1 3.96 1 6 C0.67 6 0.34 6 0 6 C-0.66 7.98 -1.32 9.96 -2 12 C-2.33 12 -2.66 12 -3 12 C-3.29344873 7.01137151 -3.05887078 4.03770942 0 0 Z " fill="#C9E6F3" transform="translate(245,221)"/>
<path d="M0 0 C3.77126791 1.01180358 4.78414572 1.67621858 7 5 C5.35 5.33 3.7 5.66 2 6 C1.67 5.01 1.34 4.02 1 3 C-1.01508358 2.26676204 -1.01508358 2.26676204 -3 2 C-2.01 1.34 -1.02 0.68 0 0 Z " fill="#A2A8AA" transform="translate(245,334)"/>
<path d="M0 0 C0.33 0.99 0.66 1.98 1 3 C0 4 0 4 -2.06640625 4.09765625 C-2.89011719 4.08605469 -3.71382813 4.07445312 -4.5625 4.0625 C-5.38878906 4.05347656 -6.21507812 4.04445313 -7.06640625 4.03515625 C-7.70449219 4.02355469 -8.34257812 4.01195312 -9 4 C-9.33 3.34 -9.66 2.68 -10 2 C-6.7 1.34 -3.4 0.68 0 0 Z " fill="#F6FAFA" transform="translate(394,314)"/>
<path d="M0 0 C0 0.66 0 1.32 0 2 C-0.66 2 -1.32 2 -2 2 C-2 3.65 -2 5.3 -2 7 C-3.32 7 -4.64 7 -6 7 C-6 5.35 -6 3.7 -6 2 C-2.25 0 -2.25 0 0 0 Z " fill="#0851BF" transform="translate(244,215)"/>
<path d="M0 0 C2.24606427 1.77444972 2.95081002 2.58352485 3.29296875 5.48046875 C3.25816406 6.37378906 3.22335938 7.26710937 3.1875 8.1875 C3.16042969 9.08855469 3.13335937 9.98960937 3.10546875 10.91796875 C3.07066406 11.60503906 3.03585938 12.29210937 3 13 C-0.01111938 8.48332093 -0.10067926 5.3360009 0 0 Z " fill="#2A56A4" transform="translate(188,211)"/>
<path d="M0 0 C0.33 0 0.66 0 1 0 C1.125 2.875 1.125 2.875 1 6 C0.34 6.66 -0.32 7.32 -1 8 C-1.6425235 10.06874034 -1.6425235 10.06874034 -2 12 C-2.66 12 -3.32 12 -4 12 C-3.45660208 7.43545749 -2.20536179 4.0271824 0 0 Z " fill="#4080B8" transform="translate(195,169)"/>
<path d="M0 0 C1.64826111 2.96687001 2.44271087 5.65626525 3 9 C1.53515625 7.76302083 0.0703125 6.52604167 -1.39453125 5.2890625 C-2.8655046 4.10798901 -4.43037794 3.04641471 -6 2 C-4.02 1.34 -2.04 0.68 0 0 Z " fill="#67C2EC" transform="translate(286,169)"/>
<path d="M0 0 C0.99 0 1.98 0 3 0 C3.625 1.8125 3.625 1.8125 4 4 C3.01 5.485 3.01 5.485 2 7 C0.68 6.34 -0.64 5.68 -2 5 C-1.34 3.35 -0.68 1.7 0 0 Z " fill="#D7D8D7" transform="translate(207,334)"/>
<path d="M0 0 C0.66 0 1.32 0 2 0 C2 0.66 2 1.32 2 2 C5.04386724 2.08226668 7.07175348 1.97608217 10 1 C9.67 2.32 9.34 3.64 9 5 C5.7 4.34 2.4 3.68 -1 3 C-0.67 2.01 -0.34 1.02 0 0 Z " fill="#205DCF" transform="translate(224,258)"/>
<path d="M0 0 C2.475 0.99 2.475 0.99 5 2 C5 3.98 5 5.96 5 8 C4.01 8 3.02 8 2 8 C0 2.25 0 2.25 0 0 Z " fill="#33A5F9" transform="translate(290,198)"/>
<path d="M0 0 C1.1875 1.625 1.1875 1.625 2 4 C0.625 7.25 0.625 7.25 -1 10 C-2.0625 8.1875 -2.0625 8.1875 -3 6 C-2 3 -2 3 0 0 Z " fill="#42A1E4" transform="translate(225,173)"/>
<path d="M0 0 C0.5775 0.226875 1.155 0.45375 1.75 0.6875 C0.76 1.0175 -0.23 1.3475 -1.25 1.6875 C-2.24 3.1725 -2.24 3.1725 -3.25 4.6875 C-4.88495707 5.73854383 -6.54883624 6.74738318 -8.25 7.6875 C-6.86345583 3.41232214 -5.12511737 -0.71182186 0 0 Z " fill="#A6B4BC" transform="translate(304.25,307.3125)"/>
<path d="M0 0 C0.99 0.495 0.99 0.495 2 1 C3.87056791 1.2275015 5.74685958 1.40962811 7.625 1.5625 C8.62789062 1.64628906 9.63078125 1.73007813 10.6640625 1.81640625 C11.43492187 1.87699219 12.20578125 1.93757812 13 2 C13 2.33 13 2.66 13 3 C6.565 3.495 6.565 3.495 0 4 C0 2.68 0 1.36 0 0 Z " fill="#2367D8" transform="translate(217,233)"/>
<path d="M0 0 C0.33 0.99 0.66 1.98 1 3 C-2.4019487 5.09350689 -5.05272412 5.17942163 -9 5 C-6.14693203 2.67527795 -3.45925163 1.2491742 0 0 Z " fill="#EFF6FD" transform="translate(287,204)"/>
<path d="M0 0 C0.33 1.32 0.66 2.64 1 4 C0.360625 4.28875 -0.27875 4.5775 -0.9375 4.875 C-3.15206079 5.82823451 -3.15206079 5.82823451 -4 8 C-4.66 8 -5.32 8 -6 8 C-5.8125 5.6875 -5.8125 5.6875 -5 3 C-2.4375 1.1875 -2.4375 1.1875 0 0 Z " fill="#2C84D9" transform="translate(222,182)"/>
<path d="M0 0 C-1.36983503 3.16115776 -1.9890638 3.9927092 -5 6 C-5.99 6 -6.98 6 -8 6 C-7.67 5.01 -7.34 4.02 -7 3 C-6.34 3.33 -5.68 3.66 -5 4 C-4.67 3.01 -4.34 2.02 -4 1 C-2 0 -2 0 0 0 Z " fill="#C2C5C7" transform="translate(324,340)"/>
<path d="M0 0 C3 3 3 3 3.07421875 5.48046875 C2.94660156 6.37378906 2.81898438 7.26710938 2.6875 8.1875 C2.56761719 9.08855469 2.44773438 9.98960937 2.32421875 10.91796875 C2.21722656 11.60503906 2.11023438 12.29210937 2 13 C1.67 13 1.34 13 1 13 C0.67 8.71 0.34 4.42 0 0 Z " fill="#A5ABAA" transform="translate(252,317)"/>
<path d="M0 0 C1 2 1 2 0.25 4.5625 C-1 7 -1 7 -4 8 C-4.33 6.68 -4.66 5.36 -5 4 C-3.35 2.68 -1.7 1.36 0 0 Z " fill="#F3F8FB" transform="translate(264,310)"/>
<path d="M0 0 C0.66 0 1.32 0 2 0 C5 5.75 5 5.75 5 8 C3.68 8 2.36 8 1 8 C0.67 5.36 0.34 2.72 0 0 Z " fill="#EAEBF0" transform="translate(342,306)"/>
<path d="M0 0 C2.3125 0.1875 2.3125 0.1875 4 1 C3.360625 1.268125 2.72125 1.53625 2.0625 1.8125 C-0.33131686 2.88667752 -0.33131686 2.88667752 -1 6 C-2.32 5.67 -3.64 5.34 -5 5 C-2.75 2.4375 -2.75 2.4375 0 0 Z " fill="#F3F9F8" transform="translate(303,308)"/>
<path d="M0 0 C0.33 1.32 0.66 2.64 1 4 C1.99 4 2.98 4 4 4 C3.67 5.32 3.34 6.64 3 8 C2.34 7.34 1.68 6.68 1 6 C0.01 6.66 -0.98 7.32 -2 8 C-1.34 5.36 -0.68 2.72 0 0 Z " fill="#9299A6" transform="translate(336,307)"/>
<path d="M0 0 C1 3 1 3 0 6 C0.66 6 1.32 6 2 6 C2.33 5.34 2.66 4.68 3 4 C2.67 5.65 2.34 7.3 2 9 C1.01 9 0.02 9 -1 9 C-1.125 2.25 -1.125 2.25 0 0 Z " fill="#B9BEC4" transform="translate(338,302)"/>
<path d="M0 0 C1.98 0.66 3.96 1.32 6 2 C6 2.66 6 3.32 6 4 C6.66 4 7.32 4 8 4 C7.67 4.99 7.34 5.98 7 7 C5.83040013 6.02433888 4.66438823 5.044375 3.5 4.0625 C2.8503125 3.51722656 2.200625 2.97195312 1.53125 2.41015625 C1.0259375 1.94480469 0.520625 1.47945312 0 1 C0 0.67 0 0.34 0 0 Z " fill="#1A3F89" transform="translate(207,249)"/>
<path d="M0 0 C0.66 0.33 1.32 0.66 2 1 C1.9375 2.75 1.9375 2.75 1 5 C-1.24164322 6.59501537 -3.53566643 7.74543018 -6 9 C-5.67 8.01 -5.34 7.02 -5 6 C-4.34 6 -3.68 6 -3 6 C-2.690625 5.195625 -2.38125 4.39125 -2.0625 3.5625 C-1 1 -1 1 0 0 Z " fill="#2F8AF1" transform="translate(290,227)"/>
<path d="M0 0 C0.99 0 1.98 0 3 0 C3 1.65 3 3.3 3 5 C1.35 5 -0.3 5 -2 5 C-1.34 3.35 -0.68 1.7 0 0 Z " fill="#0F57C1" transform="translate(237,228)"/>
<path d="M0 0 C-1.32 0.33 -2.64 0.66 -4 1 C-4 1.66 -4 2.32 -4 3 C-6.875 3.125 -6.875 3.125 -10 3 C-10.66 2.34 -11.32 1.68 -12 1 C-7.93631321 0.22596442 -4.13574827 -0.0984702 0 0 Z " fill="#0862BB" transform="translate(278,214)"/>
<path d="M0 0 C6.0546875 -0.1953125 6.0546875 -0.1953125 8 0 C8.66 0.66 9.32 1.32 10 2 C6.7 2.33 3.4 2.66 0 3 C0 2.01 0 1.02 0 0 Z " fill="#0B7DE0" transform="translate(237,191)"/>
<path d="M0 0 C2.475 0.495 2.475 0.495 5 1 C5 1.99 5 2.98 5 4 C5.99 4 6.98 4 8 4 C8 4.66 8 5.32 8 6 C5.69 5.34 3.38 4.68 1 4 C0.67 2.68 0.34 1.36 0 0 Z " fill="#89DDF5" transform="translate(295,152)"/>
<path d="M0 0 C0.33 0 0.66 0 1 0 C1.36923077 4.55384615 1.36923077 4.55384615 -0.5 6.8125 C-0.995 7.204375 -1.49 7.59625 -2 8 C-2.33 6.35 -2.66 4.7 -3 3 C-2.34 3 -1.68 3 -1 3 C-0.67 2.01 -0.34 1.02 0 0 Z " fill="#EFF2F3" transform="translate(335,316)"/>
<path d="M0 0 C1.32 0 2.64 0 4 0 C4 0.66 4 1.32 4 2 C-0.38461538 5 -0.38461538 5 -3 5 C-3.33 4.01 -3.66 3.02 -4 2 C-2.68 2 -1.36 2 0 2 C0 1.34 0 0.68 0 0 Z " fill="#24529E" transform="translate(291,256)"/>
<path d="M0 0 C2.64 0.99 5.28 1.98 8 3 C8 3.33 8 3.66 8 4 C5.03 4 2.06 4 -1 4 C-0.67 2.68 -0.34 1.36 0 0 Z " fill="#4DBEFB" transform="translate(273,166)"/>
<path d="M0 0 C1.98 0.495 1.98 0.495 4 1 C4 1.99 4 2.98 4 4 C2.35 4 0.7 4 -1 4 C-0.67 2.68 -0.34 1.36 0 0 Z " fill="#2D83EF" transform="translate(296,248)"/>
<path d="M0 0 C3.63 0 7.26 0 11 0 C11.33 0.66 11.66 1.32 12 2 C8.66666667 2 5.33333333 2 2 2 C1.34 1.34 0.68 0.68 0 0 Z " fill="#74CFF7" transform="translate(255,138)"/>
<path d="M0 0 C0.99 0 1.98 0 3 0 C3.33 1.32 3.66 2.64 4 4 C3.01 4.33 2.02 4.66 1 5 C0.34 3.68 -0.32 2.36 -1 1 C-0.67 0.67 -0.34 0.34 0 0 Z " fill="#CFD2CF" transform="translate(257,334)"/>
<path d="M0 0 C0.33 0.66 0.66 1.32 1 2 C-0.65 3.65 -2.3 5.3 -4 7 C-4 5.02 -4 3.04 -4 1 C-3.01 1 -2.02 1 -1 1 C-0.67 0.67 -0.34 0.34 0 0 Z " fill="#D0D4CC" transform="translate(227,201)"/>
<path d="M0 0 C-2.93127462 1.95418308 -4.55834679 2.64700993 -8 3 C-8.66 2.34 -9.32 1.68 -10 1 C-6.78548731 -0.60725635 -3.56387464 -0.05748185 0 0 Z " fill="#2989D0" transform="translate(247,193)"/>
<path d="M0 0 C0.66 0 1.32 0 2 0 C1.7834375 1.051875 1.7834375 1.051875 1.5625 2.125 C0.98521625 5.07556141 0.48304859 8.03270151 0 11 C-0.33 11 -0.66 11 -1 11 C-1.125 3.375 -1.125 3.375 0 0 Z " fill="#438BE1" transform="translate(191,181)"/>
</svg>
